<svg width="460" height="204" viewBox="0 0 460 204" fill="none" xmlns="http://www.w3.org/2000/svg">
<path fill-rule="evenodd" clip-rule="evenodd" d="M444.305 -16.7323L413.164 -184.896L-118.772 -12.094L-79.54 203.052C-79.2506 202.767 -78.7656 202.61 -78.6059 202.558L-70.8271 200.227C-48.3643 193.137 -31.0981 187.54 -10.1192 171.423C19.2417 148.794 38.1987 116.044 76.114 101.854C116.123 86.9843 137.07 80.9567 182.267 92.5301C211.492 99.9694 221.767 100.059 250.146 95.4224C273.074 91.7913 301.17 79.0737 319.989 64.234C339.745 48.895 353.836 29.6961 373.719 14.1304C383.87 6.08658 394.545 -0.0362565 406.158 -4.74814C419.356 -10.1643 426.97 -13.3946 440.362 -16.7883C444.755 -18.0215 443.724 -17.1157 444.305 -16.7323Z" fill="#E01C40"/>
</svg>
