<svg width="526" height="194" viewBox="0 0 526 194" fill="none" xmlns="http://www.w3.org/2000/svg">
<path fill-rule="evenodd" clip-rule="evenodd" d="M15.0533 220.506L46.2017 388.668L578.13 215.843L538.889 0.699144C538.599 0.983536 538.114 1.14074 537.954 1.19253L530.176 3.52377C507.713 10.6155 490.447 16.213 469.469 32.3306C440.109 54.9611 421.154 87.7118 383.239 101.904C343.23 116.775 322.284 122.803 277.086 111.232C247.861 103.794 237.586 103.705 209.207 108.343C186.28 111.975 158.184 124.693 139.365 139.534C119.611 154.874 105.52 174.073 85.6375 189.64C75.4872 197.684 64.8127 203.807 53.1998 208.52C40.0022 213.937 32.3883 217.167 18.9956 220.562C14.6033 221.795 15.6342 220.889 15.0533 220.506Z" fill="#E01C40"/>
</svg>
