<svg width="589" height="583" viewBox="0 0 589 583" fill="none" xmlns="http://www.w3.org/2000/svg">
<path d="M541.385 453.656C551.734 435.291 558.83 415.309 562.365 394.574C584.288 271.981 540.832 126.768 416.541 75.0438C373.697 57.2156 324.515 54.5338 280.105 68.281C229.71 83.952 197.221 122.826 156.674 153.784C128.06 175.611 91.884 186.268 65.5675 211.139C37.7785 237.386 20.026 275.176 19.8964 313.339C19.8375 340.157 30.7929 366.311 52.8804 382.716C74.4967 398.784 102.003 402.981 125.445 415.551C151.538 429.543 167.241 454.029 188.127 473.921C236.319 519.908 308.495 534.145 373.332 531.988C436.956 529.865 507.718 512.049 541.385 453.656Z" fill="#E01C40"/>
<path opacity="0.7" d="M541.385 453.656C551.734 435.291 558.83 415.309 562.365 394.574C584.288 271.981 540.832 126.768 416.541 75.0438C373.697 57.2156 324.515 54.5338 280.105 68.281C229.71 83.952 197.221 122.826 156.674 153.784C128.06 175.611 91.884 186.268 65.5675 211.139C37.7785 237.386 20.026 275.176 19.8964 313.339C19.8375 340.157 30.7929 366.311 52.8804 382.716C74.4967 398.784 102.003 402.981 125.445 415.551C151.538 429.543 167.241 454.029 188.127 473.921C236.319 519.908 308.495 534.145 373.332 531.988C436.956 529.865 507.718 512.049 541.385 453.656Z" fill="white"/>
<path d="M457.323 438.416C460.527 439.804 468.361 439.582 468.373 439.582C468.385 439.582 466.688 434.498 466.535 434.195C464.815 430.639 459.385 424.75 454.955 425.345C454.224 425.464 453.526 425.734 452.907 426.138C452.287 426.541 451.761 427.069 451.361 427.687C450.961 428.305 450.697 428.999 450.586 429.725C450.474 430.45 450.518 431.19 450.715 431.898C451.445 435.023 454.59 437.25 457.323 438.416Z" fill="#E01C40"/>
<path d="M460.033 460.92C463.355 461.41 470.352 459.392 470.906 459.241C472.058 463.216 473.475 467.111 475.146 470.901C476.112 473.105 477.149 475.297 478.221 477.477L476.913 475.623C474.298 472.638 467.489 468.394 463.378 470.12C462.702 470.423 462.098 470.864 461.606 471.414C461.114 471.964 460.745 472.611 460.523 473.312C460.3 474.013 460.23 474.752 460.316 475.482C460.402 476.212 460.643 476.916 461.022 477.547C462.542 480.287 466.17 481.64 469.127 482.059C472.083 482.479 478.115 480.893 479.729 480.462C480.153 481.29 480.553 482.129 480.977 482.957C483.004 486.957 485.042 490.933 486.926 494.885C487.586 496.285 488.187 497.684 488.788 499.083C488.222 498.255 487.739 497.567 487.61 497.474C484.994 494.489 478.186 490.233 474.074 491.97C473.4 492.275 472.797 492.717 472.306 493.268C471.815 493.818 471.447 494.464 471.225 495.165C471.002 495.865 470.932 496.604 471.017 497.333C471.102 498.062 471.341 498.766 471.718 499.398C473.238 502.126 476.878 503.479 479.823 503.91C482.768 504.342 488.222 502.896 490.107 502.383C490.684 503.829 491.285 505.286 491.756 506.709C492.074 507.7 492.451 508.621 492.71 509.624C492.969 510.626 493.264 511.594 493.535 512.562C493.994 514.451 494.477 516.398 494.878 518.252C495.161 519.535 495.42 520.771 495.667 522.007C495.031 520.619 493.712 517.914 493.57 517.692C491.45 514.358 485.324 509.134 481.036 510.218C480.323 510.42 479.661 510.768 479.092 511.239C478.523 511.711 478.061 512.295 477.736 512.955C477.41 513.615 477.229 514.335 477.203 515.069C477.177 515.803 477.307 516.534 477.585 517.214C478.669 520.153 482.061 522.03 484.9 522.893C488.045 523.837 494.984 522.974 495.856 522.893C496.268 524.945 496.657 526.95 497.034 528.839C497.776 533.025 498.341 536.768 498.765 539.94H501.687C501.18 536.663 500.509 532.745 499.637 528.361C499.213 526.274 498.73 524.059 498.212 521.773C500.306 520.949 502.348 519.999 504.325 518.928C506.611 521.389 512.465 524.257 513.219 524.618C512.418 526.554 511.629 528.431 510.863 530.192C509.238 533.888 507.706 537.188 506.352 539.94H509.509C510.687 537.374 511.959 534.448 513.302 531.218C514.115 529.247 514.951 527.125 515.787 524.945C516.624 525.12 523.503 526.507 526.707 525.784C529.605 525.143 533.127 523.511 534.423 520.666C534.752 520.008 534.936 519.289 534.966 518.556C534.995 517.823 534.869 517.091 534.594 516.41C534.32 515.728 533.904 515.111 533.373 514.599C532.843 514.087 532.209 513.691 531.514 513.436C527.285 512.037 520.817 516.795 518.45 519.966C518.308 520.153 517.024 522.356 516.235 523.756C516.577 522.858 516.906 521.995 517.248 521.074C517.919 519.255 518.544 517.413 519.215 515.442L520.099 512.515C520.417 511.548 520.629 510.475 520.9 509.449C521.465 507.058 521.936 504.61 522.349 502.126C523.963 502.709 529.723 504.691 532.703 504.458C535.684 504.225 539.406 503.176 541.126 500.564C541.552 499.962 541.846 499.278 541.987 498.556C542.129 497.835 542.115 497.092 541.947 496.376C541.78 495.66 541.461 494.987 541.013 494.4C540.565 493.814 539.998 493.328 539.347 492.973C535.377 490.944 528.262 494.687 525.435 497.474C525.27 497.637 523.468 499.806 522.502 501.1C522.737 499.608 522.973 498.127 523.173 496.611C523.715 492.227 524.139 487.773 524.575 483.33C524.705 481.966 524.858 480.614 524.999 479.261C525.576 479.471 532.374 481.978 535.707 481.745C538.688 481.535 542.41 480.462 544.13 477.838C544.556 477.238 544.849 476.554 544.991 475.834C545.132 475.113 545.119 474.371 544.951 473.656C544.783 472.941 544.465 472.269 544.017 471.683C543.569 471.098 543.001 470.613 542.351 470.259C538.381 468.231 531.266 471.973 528.439 474.749C528.227 474.958 525.647 478.165 525.023 479.016C525.341 476.031 525.694 473.058 526.201 470.143C526.8 466.205 527.657 462.31 528.769 458.483C529.04 458.576 536.12 461.223 539.548 460.99C542.516 460.78 546.239 459.696 547.958 457.084C548.385 456.483 548.679 455.801 548.821 455.081C548.964 454.361 548.951 453.619 548.784 452.904C548.618 452.189 548.3 451.516 547.854 450.931C547.407 450.345 546.841 449.859 546.191 449.505C542.222 447.476 535.107 451.207 532.279 453.994C532.055 454.215 529.275 457.655 528.816 458.32C528.816 458.098 528.922 457.865 528.993 457.643C530.227 453.827 531.804 450.128 533.705 446.59C534.718 444.631 535.802 442.8 536.885 441.051C538.158 441.681 543.953 444.479 547.087 444.607C550.22 444.736 553.884 444.048 555.886 441.646C556.376 441.094 556.743 440.447 556.963 439.747C557.184 439.046 557.253 438.307 557.167 437.578C557.08 436.849 556.839 436.146 556.461 435.515C556.082 434.884 555.573 434.339 554.968 433.915C551.245 431.467 543.765 434.405 540.643 436.865C540.466 436.994 538.9 438.544 537.769 439.687C538.275 438.906 538.782 438.09 539.288 437.355C541.15 434.568 543.034 432.131 544.719 429.986C545.685 428.82 546.592 427.654 547.44 426.698C549.007 426.698 555.333 426.476 558.042 425.194C560.752 423.911 563.826 421.602 564.474 418.559C564.651 417.846 564.675 417.104 564.544 416.381C564.413 415.658 564.13 414.971 563.713 414.363C563.297 413.755 562.756 413.241 562.126 412.853C561.497 412.465 560.791 412.212 560.057 412.111C555.615 411.645 550.338 417.661 548.724 421.276C548.583 421.579 546.957 426.709 547.04 426.709H547.134C546.286 427.654 545.402 428.68 544.448 429.823C542.716 431.933 540.773 434.335 538.829 437.087C536.711 440.031 534.768 443.095 533.01 446.263C531.021 449.805 529.357 453.516 528.039 457.352C528.044 457.398 528.044 457.445 528.039 457.492C528.039 456.197 528.039 452.571 527.968 452.291C527.461 448.385 524.151 441.121 519.722 440.317C518.988 440.203 518.239 440.243 517.522 440.435C516.806 440.627 516.138 440.966 515.562 441.43C514.987 441.894 514.516 442.473 514.182 443.129C513.847 443.785 513.655 444.503 513.62 445.237C513.372 448.339 515.646 451.452 517.861 453.399C520.37 455.615 527.285 457.76 527.874 457.923C526.628 461.858 525.648 465.87 524.94 469.933C524.516 472.265 524.163 474.69 523.833 477.092C523.833 475.926 523.833 474.97 523.774 474.83C523.268 470.924 519.946 463.66 515.528 462.855C514.795 462.742 514.046 462.782 513.33 462.974C512.614 463.166 511.947 463.505 511.373 463.969C510.798 464.433 510.329 465.012 509.995 465.668C509.662 466.324 509.472 467.042 509.438 467.776C509.179 470.877 511.464 473.991 513.679 475.938C515.893 477.885 521.83 479.879 523.385 480.369C523.279 481.29 523.15 482.211 523.044 483.144C522.502 487.575 521.984 492.005 521.347 496.331C521.124 497.859 520.853 499.351 520.57 500.844C520.57 499.853 520.57 499.013 520.57 498.885C520.052 494.979 516.741 487.714 512.324 486.91C511.591 486.796 510.842 486.836 510.126 487.028C509.41 487.22 508.743 487.559 508.168 488.024C507.594 488.488 507.124 489.067 506.791 489.723C506.458 490.379 506.268 491.097 506.234 491.83C505.975 494.932 508.248 498.045 510.475 499.992C512.701 501.94 518.049 503.735 519.899 504.33C519.58 505.857 519.251 507.385 518.874 508.842C518.579 509.834 518.379 510.813 518.037 511.792C517.696 512.772 517.401 513.74 517.083 514.696C516.412 516.526 515.74 518.415 515.033 520.176C514.562 521.4 514.079 522.566 513.608 523.744C513.844 522.228 514.256 519.243 514.256 518.998C514.215 515.524 513.27 512.118 511.511 509.111C511.524 508.721 511.5 508.33 511.44 507.945C511.347 507.216 511.099 506.516 510.714 505.888C510.328 505.261 509.814 504.721 509.204 504.303C508.594 503.885 507.902 503.599 507.174 503.463C506.445 503.327 505.695 503.344 504.973 503.514C500.662 504.68 497.905 512.142 497.717 516.083C497.717 516.316 497.858 518.858 497.988 520.456C497.764 519.523 497.564 518.625 497.328 517.669C496.88 515.78 496.374 513.903 495.832 511.839C495.537 510.883 495.243 509.903 494.937 508.924C494.63 507.945 494.242 506.942 493.9 505.939C493.04 503.607 492.062 501.275 491.026 499.025C492.698 498.628 498.612 497.147 500.98 495.34C503.348 493.533 505.845 490.606 505.821 487.493C505.844 486.758 505.709 486.028 505.427 485.348C505.144 484.669 504.72 484.056 504.182 483.55C503.644 483.043 503.004 482.655 502.304 482.41C501.604 482.166 500.86 482.07 500.12 482.129C495.679 482.607 491.874 489.615 491.026 493.475C491.026 493.719 490.708 496.553 490.59 498.139C489.954 496.763 489.329 495.387 488.646 494.023C486.667 490.07 484.535 486.117 482.415 482.176C481.767 481.01 481.142 479.762 480.506 478.55C481.107 478.421 488.163 476.801 490.825 474.772C493.181 472.988 495.691 470.05 495.667 466.925C495.688 466.191 495.552 465.462 495.269 464.784C494.985 464.105 494.561 463.494 494.023 462.989C493.485 462.484 492.846 462.097 492.147 461.853C491.448 461.609 490.704 461.514 489.966 461.573C485.524 462.051 481.72 469.047 480.871 472.918C480.801 473.209 480.436 477.29 480.388 478.328C478.987 475.67 477.62 473 476.383 470.318C474.689 466.699 473.233 462.976 472.025 459.171C472.307 459.113 479.682 457.457 482.403 455.381C484.759 453.586 487.28 450.659 487.256 447.534C487.277 446.8 487.141 446.069 486.857 445.39C486.573 444.711 486.148 444.099 485.608 443.594C485.069 443.089 484.428 442.702 483.728 442.459C483.027 442.215 482.283 442.121 481.543 442.182C477.102 442.66 473.297 449.656 472.449 453.516C472.378 453.831 471.989 458.18 471.966 459.019C471.966 458.798 471.801 458.576 471.742 458.355C470.613 454.505 469.833 450.564 469.409 446.578C469.162 444.386 469.044 442.275 468.985 440.223C470.387 440.048 476.807 439.197 479.47 437.611C482.132 436.026 484.829 433.437 485.159 430.336C485.262 429.608 485.209 428.867 485.003 428.161C484.797 427.455 484.443 426.8 483.964 426.239C483.485 425.678 482.891 425.223 482.222 424.904C481.553 424.585 480.824 424.41 480.082 424.389C475.618 424.389 471.012 430.919 469.775 434.673C469.704 434.883 469.256 437.005 468.962 438.603C468.962 437.67 468.962 436.714 468.962 435.816C468.962 432.481 469.186 429.414 469.398 426.709C469.527 425.17 469.68 423.783 469.834 422.488C471.129 421.602 476.289 417.999 477.879 415.411C479.47 412.822 480.624 409.266 479.446 406.398C479.197 405.705 478.804 405.072 478.292 404.54C477.78 404.008 477.16 403.589 476.473 403.31C475.787 403.03 475.048 402.897 474.306 402.919C473.564 402.941 472.835 403.117 472.166 403.436C468.196 405.465 467.159 413.37 467.819 417.265C467.819 417.603 469.374 422.768 469.433 422.722L469.515 422.663C469.339 423.911 469.174 425.252 469.009 426.721C468.738 429.426 468.455 432.493 468.373 435.851C468.251 439.464 468.341 443.08 468.644 446.683C468.959 450.722 469.637 454.726 470.67 458.646C470.665 458.693 470.665 458.74 470.67 458.786C469.963 457.69 467.89 454.705 467.713 454.483C465.098 451.51 458.289 447.254 454.178 448.98C453.503 449.286 452.9 449.729 452.409 450.281C451.918 450.832 451.55 451.479 451.328 452.181C451.106 452.882 451.035 453.622 451.12 454.352C451.205 455.082 451.444 455.786 451.822 456.419C453.448 459.147 457.064 460.5 460.033 460.92Z" fill="#E01C40"/>
<path d="M536.603 440.165C536.673 440.165 538.028 435 538.075 434.661C538.629 430.755 537.368 422.885 533.363 420.961C532.686 420.66 531.953 420.503 531.211 420.5C530.468 420.498 529.734 420.65 529.055 420.947C528.376 421.244 527.768 421.679 527.27 422.224C526.772 422.768 526.396 423.411 526.165 424.109C525.093 427.048 526.46 430.639 528.074 433.122C529.959 436.084 536.603 440.153 536.603 440.165Z" fill="#E01C40"/>
<path d="M33.4905 438.416C36.6947 439.804 44.5402 439.582 44.5402 439.582C44.5402 439.582 42.8556 434.498 42.7143 434.195C40.9944 430.639 35.552 424.75 31.1228 425.345C30.3913 425.464 29.6933 425.734 29.0741 426.138C28.4548 426.541 27.9282 427.069 27.5283 427.687C27.1285 428.305 26.8643 428.999 26.7529 429.725C26.6416 430.45 26.6855 431.19 26.882 431.898C27.6241 435.023 30.7694 437.25 33.4905 438.416Z" fill="#E01C40"/>
<path d="M36.1999 460.92C39.5219 461.41 46.5192 459.392 47.0729 459.241C48.2258 463.216 49.6425 467.111 51.3137 470.901C52.2796 473.104 53.3163 475.297 54.3883 477.477C53.7521 476.556 53.2103 475.74 53.0807 475.623C50.4655 472.638 43.6567 468.394 39.5455 470.12C38.8708 470.424 38.2684 470.866 37.7775 471.417C37.2865 471.967 36.918 472.613 36.6958 473.314C36.4736 474.014 36.4028 474.753 36.4878 475.482C36.5729 476.212 36.8119 476.915 37.1895 477.547C38.7091 480.287 42.3491 481.64 45.2941 482.059C48.2391 482.479 54.2822 480.893 55.8961 480.462C56.3202 481.29 56.7207 482.129 57.1448 482.957C59.1709 486.957 61.2089 490.933 63.0348 494.885C63.6945 496.285 64.2952 497.684 64.9078 499.083C64.3306 498.255 63.8476 497.567 63.7298 497.474C61.1264 494.489 54.3058 490.233 50.1946 491.97C49.5199 492.275 48.9175 492.717 48.4266 493.268C47.9356 493.818 47.5671 494.464 47.3449 495.165C47.1228 495.865 47.0519 496.604 47.1369 497.333C47.222 498.062 47.461 498.766 47.8386 499.398C49.3582 502.126 52.9982 503.479 55.9432 503.91C58.8882 504.342 64.3541 502.896 66.2272 502.383C66.8044 503.829 67.4052 505.286 67.8881 506.709C68.1944 507.7 68.5714 508.621 68.8305 509.624C69.0897 510.626 69.3842 511.594 69.6551 512.562C70.1146 514.451 70.5975 516.398 70.9981 518.252C71.2926 519.535 71.5399 520.771 71.7991 522.007C71.1512 520.619 69.8318 517.914 69.7023 517.692C67.5701 514.358 61.4563 509.134 57.1683 510.218C56.4551 510.42 55.7926 510.768 55.224 511.239C54.6554 511.711 54.1933 512.295 53.8678 512.955C53.5423 513.615 53.3607 514.335 53.3346 515.069C53.3086 515.803 53.4388 516.534 53.7168 517.214C54.7888 520.153 58.1814 522.03 61.0322 522.893C64.1657 523.837 71.1041 522.974 71.9758 522.893C72.3881 524.945 72.7768 526.95 73.1538 528.839C73.8959 533.025 74.4614 536.768 74.8855 539.94H77.8187C77.3004 536.663 76.6407 532.745 75.7572 528.361C75.3449 526.274 74.8619 524.059 74.3318 521.773C76.4407 520.934 78.4945 519.964 80.481 518.87C82.7663 521.33 88.6209 524.199 89.3749 524.56C88.5856 526.496 87.7846 528.373 87.0189 530.134C85.405 533.83 83.8618 537.13 82.5071 539.881H85.6759C86.854 537.316 88.1262 534.389 89.4573 531.16C90.2819 529.189 91.1065 527.067 91.9429 524.887C92.7911 525.061 99.6588 526.449 102.863 525.726C105.761 525.085 109.283 523.452 110.591 520.607C110.919 519.949 111.103 519.229 111.132 518.495C111.16 517.762 111.033 517.03 110.757 516.348C110.482 515.667 110.064 515.05 109.532 514.538C109 514.026 108.366 513.631 107.669 513.378C103.44 511.979 96.973 516.736 94.6052 519.908C94.4638 520.094 93.1798 522.298 92.3905 523.697C92.7322 522.799 93.0738 521.937 93.4036 521.015C94.0751 519.196 94.6994 517.354 95.3709 515.384L96.2544 512.457C96.5724 511.489 96.7845 510.416 97.0554 509.39C97.6326 507 98.0921 504.552 98.5044 502.068C100.118 502.651 105.879 504.633 108.871 504.4C111.863 504.167 115.562 503.117 117.282 500.505C117.707 499.904 117.999 499.22 118.141 498.5C118.282 497.779 118.269 497.037 118.102 496.321C117.936 495.606 117.62 494.933 117.174 494.346C116.728 493.76 116.163 493.272 115.515 492.915C111.545 490.886 104.43 494.629 101.603 497.416C101.426 497.579 99.6235 499.748 98.6575 501.042C98.8931 499.549 99.1405 498.069 99.329 496.553C99.8826 492.169 100.295 487.714 100.731 483.272C100.86 481.908 101.014 480.555 101.155 479.203C101.732 479.413 108.529 481.919 111.875 481.686C114.843 481.476 118.566 480.404 120.286 477.78C120.712 477.179 121.005 476.496 121.146 475.775C121.288 475.055 121.274 474.313 121.106 473.597C120.938 472.882 120.62 472.21 120.172 471.625C119.724 471.04 119.157 470.555 118.507 470.201C114.549 468.172 107.434 471.915 104.606 474.69C104.394 474.9 101.803 478.107 101.19 478.958C101.508 475.973 101.85 473 102.368 470.085C102.971 466.146 103.833 462.252 104.948 458.425C105.207 458.518 112.287 461.165 115.715 460.931C118.684 460.722 122.418 459.637 124.138 457.025C124.564 456.424 124.857 455.741 124.998 455.021C125.14 454.3 125.126 453.558 124.958 452.843C124.791 452.127 124.472 451.455 124.024 450.87C123.576 450.285 123.009 449.8 122.359 449.446C118.389 447.418 111.274 451.149 108.447 453.935C108.223 454.157 105.443 457.597 104.983 458.261C105.054 458.04 105.089 457.807 105.16 457.585C106.394 453.769 107.971 450.069 109.872 446.531C110.885 444.572 111.969 442.742 113.064 440.993C114.325 441.622 120.132 444.421 123.254 444.549C126.376 444.677 130.063 443.989 132.054 441.588C132.545 441.037 132.914 440.39 133.135 439.689C133.357 438.988 133.426 438.249 133.34 437.519C133.253 436.789 133.012 436.086 132.632 435.455C132.252 434.824 131.742 434.28 131.135 433.857C127.412 431.408 119.932 434.347 116.81 436.807C116.646 436.935 115.067 438.486 113.948 439.629C114.443 438.847 114.949 438.031 115.456 437.297C117.317 434.51 119.202 432.073 120.886 429.928C121.864 428.762 122.759 427.596 123.608 426.639C125.186 426.639 131.5 426.418 134.21 425.135C136.919 423.853 139.994 421.544 140.641 418.501C140.822 417.787 140.849 417.044 140.719 416.32C140.59 415.596 140.307 414.907 139.89 414.298C139.473 413.69 138.931 413.175 138.299 412.788C137.668 412.401 136.96 412.151 136.224 412.053C131.783 411.586 126.517 417.603 124.892 421.218C124.75 421.521 123.125 426.651 123.207 426.651H123.301C122.453 427.596 121.57 428.622 120.615 429.764C118.884 431.875 116.94 434.277 115.008 437.028C112.866 439.971 110.899 443.035 109.118 446.205C107.139 449.751 105.476 453.461 104.147 457.294V457.433C104.147 456.139 104.147 452.513 104.076 452.233C103.558 448.327 100.248 441.063 95.8303 440.258C95.0975 440.144 94.3486 440.185 93.6326 440.377C92.9166 440.569 92.2495 440.908 91.6748 441.372C91.1001 441.836 90.6308 442.415 90.2974 443.071C89.964 443.727 89.7741 444.445 89.74 445.179C89.4809 448.28 91.7544 451.394 93.9808 453.341C96.4782 455.556 103.405 457.702 103.994 457.865C102.739 461.798 101.755 465.81 101.049 469.875C100.625 472.207 100.271 474.632 99.9415 477.034C99.9415 475.868 99.9415 474.912 99.9415 474.772C99.435 470.866 96.113 463.602 91.6955 462.797C90.9621 462.683 90.2126 462.724 89.496 462.915C88.7793 463.107 88.1115 463.446 87.5359 463.91C86.9603 464.374 86.4899 464.953 86.1552 465.609C85.8206 466.265 85.6292 466.984 85.5935 467.718C85.3343 470.819 87.6196 473.932 89.8343 475.88C92.0489 477.827 97.986 479.821 99.5528 480.31C99.435 481.232 99.3054 482.153 99.1994 483.085C98.6575 487.516 98.151 491.947 97.5031 496.273C97.2792 497.8 97.0083 499.293 96.7374 500.785C96.7374 499.794 96.7374 498.955 96.7374 498.826C96.219 494.92 92.9089 487.656 88.4914 486.852C87.7585 486.738 87.0097 486.778 86.2936 486.97C85.5776 487.162 84.9105 487.501 84.3358 487.965C83.7612 488.43 83.2918 489.009 82.9585 489.665C82.6251 490.321 82.4352 491.039 82.4011 491.772C82.1419 494.874 84.4273 497.987 86.6419 499.934C88.8565 501.881 94.2164 503.677 96.0659 504.272C95.7361 505.799 95.4062 507.327 95.0293 508.784C94.7465 509.775 94.5345 510.755 94.1929 511.734C93.8513 512.714 93.5568 513.681 93.2505 514.637C92.579 516.468 91.8958 518.357 91.189 520.118C90.7178 521.342 90.2348 522.508 89.7636 523.686C89.9992 522.17 90.4115 519.185 90.4233 518.94C90.3721 515.465 89.4231 512.061 87.6668 509.052C87.6792 508.662 87.6555 508.272 87.5961 507.886C87.5021 507.158 87.2545 506.457 86.8692 505.83C86.4839 505.203 85.9696 504.663 85.3597 504.245C84.7499 503.827 84.058 503.541 83.3291 503.405C82.6002 503.269 81.8506 503.286 81.1289 503.455C76.8174 504.621 74.0609 512.084 73.8724 516.025C73.8724 516.258 74.0137 518.8 74.1433 520.397C73.9195 519.465 73.7192 518.567 73.4836 517.611C73.036 515.722 72.5295 513.845 71.9876 511.781C71.6931 510.825 71.3986 509.845 71.0923 508.866C70.786 507.886 70.3973 506.883 70.0557 505.881C69.1957 503.549 68.218 501.217 67.1813 498.966C68.8541 498.57 74.7677 497.089 77.1354 495.282C79.5032 493.474 82.0124 490.548 81.9888 487.435C82.0076 486.7 81.8703 485.97 81.5858 485.291C81.3013 484.613 80.876 484.001 80.3374 483.495C79.7988 482.989 79.159 482.601 78.4592 482.356C77.7595 482.111 77.0155 482.014 76.2755 482.071C71.8344 482.549 68.0295 489.557 67.1813 493.416C67.1813 493.661 66.8633 496.494 66.7573 498.08C66.1211 496.704 65.4968 495.328 64.8018 493.964C62.8227 490.012 60.6906 486.059 58.5819 482.118C57.934 480.952 57.2979 479.704 56.6618 478.491C57.2626 478.363 64.3306 476.742 66.9811 474.714C69.3371 472.93 71.858 469.991 71.8344 466.866C71.8552 466.132 71.7192 465.401 71.4353 464.722C71.1513 464.043 70.7258 463.431 70.1866 462.926C69.6474 462.421 69.0066 462.034 68.3061 461.791C67.6055 461.548 66.861 461.453 66.1211 461.514C61.6801 461.993 57.8751 468.989 57.027 472.86C57.027 473.151 56.5911 477.232 56.544 478.27C55.154 475.611 53.7875 472.941 52.5388 470.259C50.8447 466.641 49.3888 462.917 48.1802 459.112C48.4629 459.054 55.8372 457.398 58.5584 455.323C60.9144 453.527 63.4353 450.601 63.4117 447.476C63.4325 446.741 63.2965 446.011 63.0126 445.332C62.7286 444.653 62.3031 444.041 61.7639 443.536C61.2247 443.03 60.5839 442.644 59.8834 442.4C59.1828 442.157 58.4383 442.063 57.6984 442.124C53.2574 442.602 49.4524 449.598 48.6043 453.457C48.5454 453.772 48.1449 458.121 48.1331 458.961C48.0624 458.739 47.9682 458.518 47.8975 458.296C46.7764 454.466 45.9998 450.544 45.5768 446.578C45.3294 444.386 45.2116 442.275 45.1527 440.223C46.5546 440.048 52.9747 439.197 55.6369 437.611C58.2992 436.026 60.9968 433.437 61.3267 430.336C61.4297 429.608 61.3765 428.867 61.1705 428.161C60.9645 427.455 60.6103 426.8 60.1311 426.239C59.652 425.678 59.0586 425.223 58.3897 424.904C57.7208 424.585 56.9916 424.41 56.2495 424.389C51.7849 424.389 47.1789 430.919 45.942 434.673C45.942 434.883 45.4355 437.005 45.1292 438.603C45.1292 437.67 45.1292 436.714 45.1292 435.816C45.1292 432.481 45.353 429.414 45.565 426.709C45.6946 425.17 45.8478 423.783 46.0009 422.488C47.2967 421.602 52.4563 417.999 54.0466 415.411C55.6369 412.822 56.8621 409.266 55.7076 406.363C55.4561 405.667 55.0587 405.032 54.5416 404.5C54.0245 403.967 53.3993 403.549 52.7073 403.272C52.0152 402.996 51.2719 402.868 50.5262 402.896C49.7805 402.924 49.0492 403.108 48.3805 403.436C44.4224 405.465 43.374 413.37 44.0336 417.265C44.0336 417.603 45.5886 422.768 45.6593 422.722L45.73 422.663C45.5533 423.911 45.3883 425.252 45.2234 426.721C44.9525 429.426 44.6698 432.493 44.5991 435.851C44.4673 439.463 44.5538 443.081 44.8582 446.683C45.1732 450.722 45.8513 454.726 46.8844 458.646V458.786C46.1776 457.69 44.1161 454.705 43.9276 454.483C41.3125 451.51 34.5036 447.254 30.3924 448.98C29.7173 449.286 29.1148 449.729 28.6238 450.281C28.1327 450.832 27.7642 451.479 27.5421 452.181C27.32 452.882 27.2492 453.622 27.3344 454.352C27.4195 455.082 27.6587 455.786 28.0364 456.419C29.6149 459.147 33.2549 460.5 36.1999 460.92Z" fill="#E01C40"/>
<path d="M112.77 440.165C112.841 440.165 114.195 435 114.242 434.661C114.796 430.755 113.536 422.885 109.53 420.961C108.854 420.66 108.12 420.503 107.378 420.5C106.636 420.498 105.901 420.65 105.223 420.947C104.544 421.244 103.936 421.679 103.438 422.224C102.94 422.768 102.563 423.411 102.333 424.109C101.261 427.048 102.627 430.639 104.241 433.122C106.138 436.084 112.77 440.153 112.77 440.165Z" fill="#E01C40"/>
<path d="M540.702 539.858H557.194" stroke="#263238" stroke-linecap="round" stroke-linejoin="round"/>
<path d="M234.422 539.858H524.21" stroke="#263238" stroke-linecap="round" stroke-linejoin="round"/>
<path d="M44.764 539.858H222.642" stroke="#263238" stroke-linecap="round" stroke-linejoin="round"/>
<path opacity="0.1" d="M149.747 98.4454C149.747 107.622 132.937 126.814 132.937 126.814C132.937 126.814 116.139 107.622 116.139 98.4454C116.255 94.1103 118.076 89.9913 121.215 86.9657C124.354 83.9401 128.562 82.247 132.943 82.247C137.324 82.247 141.533 83.9401 144.671 86.9657C147.81 89.9913 149.631 94.1103 149.747 98.4454ZM310.815 415.353C308.609 415.351 306.424 415.78 304.385 416.615C302.346 417.45 300.494 418.675 298.934 420.219C297.373 421.763 296.136 423.597 295.293 425.615C294.449 427.633 294.015 429.796 294.017 431.98C294.017 441.156 310.815 460.348 310.815 460.348C310.815 460.348 327.614 441.156 327.614 431.98C327.614 427.57 325.844 423.341 322.693 420.223C319.543 417.104 315.27 415.353 310.815 415.353ZM451.174 34.8634C446.719 34.8634 442.446 36.6152 439.296 39.7334C436.146 42.8516 434.376 47.0808 434.376 51.4906C434.34 60.632 451.174 79.8593 451.174 79.8593C451.174 79.8593 467.937 60.632 467.937 51.4906C467.934 47.0878 466.168 42.8657 463.026 39.7491C459.884 36.6326 455.622 34.8757 451.174 34.8634ZM77.6066 253.966C75.4002 253.965 73.2151 254.394 71.1764 255.229C69.1376 256.064 67.2852 257.289 65.725 258.833C64.1648 260.377 62.9275 262.211 62.0839 264.229C61.2403 266.247 60.8068 268.41 60.8084 270.594C60.8084 279.77 77.6066 298.951 77.6066 298.951C77.6066 298.951 94.4049 279.77 94.4049 270.594C94.4049 266.184 92.6351 261.955 89.4848 258.836C86.3345 255.718 82.0618 253.966 77.6066 253.966ZM524.257 248.136C519.817 248.139 515.559 249.881 512.411 252.981C509.264 256.081 507.484 260.287 507.459 264.682C507.459 273.87 524.257 293.051 524.257 293.051C524.257 293.051 541.055 273.905 541.055 264.682C541.051 262.498 540.611 260.335 539.762 258.319C538.913 256.303 537.671 254.472 536.106 252.931C534.542 251.39 532.686 250.169 530.645 249.339C528.604 248.508 526.417 248.084 524.21 248.09L524.257 248.136ZM451.174 58.5332H444.106C443.794 58.5332 443.494 58.4104 443.273 58.1917C443.052 57.973 442.928 57.6764 442.928 57.3672C442.928 57.058 443.052 56.7614 443.273 56.5427C443.494 56.3241 443.794 56.2012 444.106 56.2012H451.174C451.486 56.2012 451.786 56.3241 452.007 56.5427C452.228 56.7614 452.352 57.058 452.352 57.3672C452.352 57.6764 452.228 57.973 452.007 58.1917C451.786 58.4104 451.486 58.5332 451.174 58.5332ZM378.998 437.845C378.998 437.535 378.874 437.239 378.653 437.02C378.432 436.802 378.132 436.679 377.82 436.679H363.684C363.372 436.679 363.072 436.802 362.851 437.02C362.63 437.239 362.506 437.535 362.506 437.845C362.506 438.154 362.63 438.451 362.851 438.669C363.072 438.888 363.372 439.011 363.684 439.011H377.82C378.132 439.011 378.432 438.888 378.653 438.669C378.874 438.451 378.998 438.154 378.998 437.845ZM350.844 437.845C350.844 437.535 350.72 437.239 350.499 437.02C350.278 436.802 349.978 436.679 349.666 436.679H335.6C335.288 436.679 334.988 436.802 334.767 437.02C334.547 437.239 334.422 437.535 334.422 437.845C334.422 438.154 334.547 438.451 334.767 438.669C334.988 438.888 335.288 439.011 335.6 439.011H349.666C349.978 439.011 350.278 438.888 350.499 438.669C350.72 438.451 350.844 438.154 350.844 437.845ZM392.003 438.906C397.025 438.379 401.657 435.982 404.961 432.201C405.166 431.968 405.268 431.663 405.246 431.355C405.224 431.047 405.079 430.76 404.843 430.557C404.607 430.355 404.3 430.253 403.988 430.275C403.677 430.297 403.387 430.44 403.182 430.674C400.27 434.003 396.191 436.116 391.767 436.585C391.613 436.594 391.461 436.632 391.322 436.699C391.182 436.765 391.057 436.858 390.953 436.972C390.85 437.086 390.77 437.22 390.719 437.364C390.668 437.509 390.646 437.662 390.654 437.816C390.663 437.969 390.702 438.119 390.769 438.257C390.836 438.395 390.93 438.519 391.045 438.621C391.16 438.724 391.295 438.802 391.441 438.853C391.587 438.904 391.742 438.926 391.897 438.917L392.003 438.906ZM322.772 437.017C322.834 436.876 322.868 436.724 322.871 436.571C322.874 436.417 322.846 436.264 322.789 436.121C322.732 435.978 322.647 435.848 322.539 435.737C322.431 435.627 322.302 435.539 322.159 435.478C320.145 434.626 318.342 433.35 316.875 431.739C315.409 430.129 314.313 428.221 313.666 426.15C313.619 426.003 313.544 425.867 313.444 425.75C313.343 425.633 313.221 425.536 313.083 425.465C312.945 425.395 312.794 425.352 312.64 425.34C312.485 425.327 312.329 425.345 312.182 425.392C311.886 425.486 311.639 425.691 311.496 425.964C311.352 426.237 311.324 426.555 311.416 426.849C312.171 429.233 313.439 431.427 315.133 433.279C316.827 435.13 318.907 436.597 321.229 437.576C321.373 437.641 321.53 437.673 321.688 437.67C321.913 437.675 322.134 437.616 322.327 437.5C322.519 437.384 322.673 437.217 322.772 437.017ZM409.826 418.594V404.684C409.826 404.374 409.702 404.078 409.481 403.859C409.26 403.64 408.961 403.518 408.648 403.518C408.336 403.518 408.036 403.64 407.815 403.859C407.594 404.078 407.47 404.374 407.47 404.684V418.594C407.47 418.903 407.594 419.2 407.815 419.418C408.036 419.637 408.336 419.76 408.648 419.76C408.961 419.76 409.26 419.637 409.481 419.418C409.702 419.2 409.826 418.903 409.826 418.594ZM312.983 412.682V403.11C312.982 401.599 312.868 400.091 312.641 398.597C312.618 398.445 312.565 398.3 312.485 398.168C312.405 398.037 312.3 397.923 312.175 397.832C312.05 397.741 311.909 397.675 311.758 397.638C311.608 397.601 311.451 397.595 311.298 397.618C311.145 397.64 310.998 397.693 310.865 397.772C310.732 397.851 310.617 397.956 310.525 398.079C310.433 398.203 310.367 398.343 310.329 398.492C310.292 398.641 310.285 398.795 310.309 398.947C310.521 400.324 310.628 401.716 310.627 403.11V412.682C310.627 412.992 310.751 413.288 310.972 413.507C311.193 413.726 311.492 413.848 311.805 413.848C312.117 413.848 312.417 413.726 312.638 413.507C312.859 413.288 312.983 412.992 312.983 412.682ZM409.826 390.738V376.816C409.826 376.507 409.702 376.21 409.481 375.992C409.26 375.773 408.961 375.65 408.648 375.65C408.336 375.65 408.036 375.773 407.815 375.992C407.594 376.21 407.47 376.507 407.47 376.816V390.75C407.47 391.059 407.594 391.356 407.815 391.574C408.036 391.793 408.336 391.916 408.648 391.916C408.961 391.916 409.26 391.793 409.481 391.574C409.702 391.356 409.826 391.059 409.826 390.75V390.738ZM306.845 386.972C306.97 386.881 307.075 386.767 307.155 386.635C307.235 386.504 307.288 386.358 307.311 386.207C307.334 386.055 307.327 385.9 307.289 385.752C307.252 385.603 307.185 385.463 307.093 385.34C304.185 381.435 300.371 378.279 295.972 376.14C295.833 376.059 295.678 376.007 295.517 375.988C295.356 375.969 295.193 375.983 295.038 376.029C294.883 376.075 294.739 376.152 294.615 376.256C294.492 376.36 294.391 376.488 294.32 376.631C294.248 376.775 294.207 376.932 294.2 377.092C294.192 377.253 294.218 377.412 294.276 377.562C294.334 377.712 294.423 377.848 294.536 377.963C294.65 378.077 294.786 378.167 294.936 378.227C298.996 380.203 302.516 383.119 305.196 386.727C305.288 386.851 305.404 386.955 305.536 387.034C305.669 387.113 305.816 387.165 305.97 387.188C306.123 387.211 306.279 387.204 306.429 387.167C306.58 387.129 306.721 387.063 306.845 386.972ZM283.014 374.286C283.014 373.977 282.89 373.68 282.669 373.462C282.449 373.243 282.149 373.12 281.836 373.12H267.771C267.459 373.12 267.159 373.243 266.938 373.462C266.717 373.68 266.593 373.977 266.593 374.286C266.593 374.595 266.717 374.892 266.938 375.11C267.159 375.329 267.459 375.452 267.771 375.452H281.836C282.149 375.452 282.449 375.329 282.669 375.11C282.89 374.892 283.014 374.595 283.014 374.286ZM254.872 374.286C254.872 373.977 254.748 373.68 254.527 373.462C254.306 373.243 254.007 373.12 253.694 373.12H239.558C239.246 373.12 238.946 373.243 238.725 373.462C238.504 373.68 238.38 373.977 238.38 374.286C238.38 374.595 238.504 374.892 238.725 375.11C238.946 375.329 239.246 375.452 239.558 375.452H253.694C254.007 375.452 254.306 375.329 254.527 375.11C254.748 374.892 254.872 374.595 254.872 374.286ZM226.73 374.286C226.73 373.977 226.606 373.68 226.385 373.462C226.164 373.243 225.864 373.12 225.552 373.12H211.475C211.162 373.12 210.863 373.243 210.642 373.462C210.421 373.68 210.297 373.977 210.297 374.286C210.297 374.595 210.421 374.892 210.642 375.11C210.863 375.329 211.162 375.452 211.475 375.452H225.552C225.864 375.452 226.164 375.329 226.385 375.11C226.606 374.892 226.73 374.595 226.73 374.286ZM198.587 374.286C198.587 373.977 198.463 373.68 198.242 373.462C198.021 373.243 197.722 373.12 197.409 373.12H183.273C182.961 373.12 182.661 373.243 182.44 373.462C182.219 373.68 182.095 373.977 182.095 374.286C182.095 374.595 182.219 374.892 182.44 375.11C182.661 375.329 182.961 375.452 183.273 375.452H197.409C197.722 375.452 198.021 375.329 198.242 375.11C198.463 374.892 198.587 374.595 198.587 374.286ZM170.433 374.286C170.433 373.977 170.309 373.68 170.088 373.462C169.867 373.243 169.567 373.12 169.255 373.12H155.19C154.877 373.12 154.578 373.243 154.357 373.462C154.136 373.68 154.012 373.977 154.012 374.286C154.012 374.595 154.136 374.892 154.357 375.11C154.578 375.329 154.877 375.452 155.19 375.452H169.255C169.567 375.452 169.867 375.329 170.088 375.11C170.309 374.892 170.433 374.595 170.433 374.286ZM142.291 374.286C142.291 373.977 142.167 373.68 141.946 373.462C141.725 373.243 141.425 373.12 141.113 373.12H127.047C126.735 373.12 126.435 373.243 126.214 373.462C125.993 373.68 125.869 373.977 125.869 374.286C125.869 374.595 125.993 374.892 126.214 375.11C126.435 375.329 126.735 375.452 127.047 375.452H141.113C141.425 375.452 141.725 375.329 141.946 375.11C142.167 374.892 142.291 374.595 142.291 374.286ZM114.148 374.286C114.148 373.977 114.024 373.68 113.803 373.462C113.582 373.243 113.283 373.12 112.97 373.12H98.952C98.6396 373.12 98.3399 373.243 98.119 373.462C97.8981 373.68 97.774 373.977 97.774 374.286C97.774 374.595 97.8981 374.892 98.119 375.11C98.3399 375.329 98.6396 375.452 98.952 375.452H113.088C113.38 375.423 113.65 375.287 113.846 375.072C114.042 374.856 114.15 374.576 114.148 374.286ZM86.2532 372.42C86.3929 372.145 86.4168 371.826 86.3197 371.533C86.2225 371.241 86.0123 370.998 85.7348 370.858C81.7233 368.863 78.432 365.691 76.3108 361.775C76.1614 361.509 75.9127 361.311 75.6179 361.224C75.3231 361.137 75.0056 361.167 74.7332 361.309C74.4609 361.451 74.2553 361.692 74.1605 361.982C74.0657 362.271 74.0891 362.586 74.2258 362.859C76.5657 367.202 80.2023 370.724 84.6393 372.945C84.8044 373.024 84.9859 373.064 85.1694 373.062C85.3942 373.067 85.6156 373.008 85.8077 372.892C85.9997 372.776 86.1543 372.609 86.2532 372.409V372.42ZM73.837 348.809V334.875C73.837 334.566 73.7129 334.269 73.492 334.051C73.2711 333.832 72.9715 333.709 72.659 333.709C72.3466 333.709 72.047 333.832 71.8261 334.051C71.6051 334.269 71.481 334.566 71.481 334.875V348.809C71.481 349.118 71.6051 349.415 71.8261 349.633C72.047 349.852 72.3466 349.975 72.659 349.975C72.9715 349.975 73.2711 349.852 73.492 349.633C73.7129 349.415 73.837 349.118 73.837 348.809ZM73.837 320.953V307.019C73.837 306.71 73.7129 306.414 73.492 306.195C73.2711 305.976 72.9715 305.853 72.659 305.853C72.3466 305.853 72.047 305.976 71.8261 306.195C71.6051 306.414 71.481 306.71 71.481 307.019V320.953C71.481 321.262 71.6051 321.559 71.8261 321.778C72.047 321.996 72.3466 322.119 72.659 322.119C72.9715 322.119 73.2711 321.996 73.492 321.778C73.7129 321.559 73.837 321.262 73.837 320.953ZM73.837 293.086V287.256C73.8242 284.765 74.567 282.328 75.9692 280.26C76.1426 280.002 76.2053 279.686 76.1434 279.382C76.0816 279.078 75.9002 278.811 75.6394 278.639C75.3785 278.467 75.0594 278.405 74.7524 278.467C74.4453 278.528 74.1754 278.707 74.002 278.966C72.3531 281.405 71.4755 284.274 71.481 287.209V293.039C71.481 293.348 71.6051 293.645 71.8261 293.864C72.047 294.082 72.3466 294.205 72.659 294.205C72.9715 294.205 73.2711 294.082 73.492 293.864C73.7129 293.645 73.837 293.348 73.837 293.039V293.086ZM551.634 273.719C551.781 273.67 551.917 273.593 552.034 273.492C552.151 273.391 552.247 273.268 552.316 273.131C552.385 272.993 552.426 272.843 552.436 272.69C552.446 272.537 552.426 272.383 552.376 272.238C552.277 271.946 552.065 271.705 551.787 271.568C551.509 271.43 551.187 271.407 550.892 271.503C549.155 272.072 547.337 272.359 545.508 272.354H537.262C536.95 272.354 536.65 272.477 536.429 272.696C536.208 272.914 536.084 273.211 536.084 273.52C536.084 273.83 536.208 274.126 536.429 274.345C536.65 274.563 536.95 274.686 537.262 274.686H545.508C547.589 274.687 549.657 274.36 551.634 273.719ZM524.387 273.52C524.387 273.211 524.263 272.914 524.042 272.696C523.821 272.477 523.521 272.354 523.209 272.354H509.143C508.831 272.354 508.531 272.477 508.31 272.696C508.089 272.914 507.965 273.211 507.965 273.52C507.965 273.83 508.089 274.126 508.31 274.345C508.531 274.563 508.831 274.686 509.143 274.686H523.209C523.521 274.686 523.821 274.563 524.042 274.345C524.263 274.126 524.387 273.83 524.387 273.52ZM496.244 273.52C496.244 273.211 496.12 272.914 495.899 272.696C495.678 272.477 495.379 272.354 495.066 272.354H481.001C480.689 272.354 480.389 272.477 480.168 272.696C479.947 272.914 479.823 273.211 479.823 273.52C479.823 273.83 479.947 274.126 480.168 274.345C480.389 274.563 480.689 274.686 481.001 274.686H495.066C495.379 274.686 495.678 274.563 495.899 274.345C496.12 274.126 496.244 273.83 496.244 273.52ZM468.102 273.52C468.102 273.211 467.978 272.914 467.757 272.696C467.536 272.477 467.236 272.354 466.924 272.354H452.847C452.534 272.354 452.235 272.477 452.014 272.696C451.793 272.914 451.669 273.211 451.669 273.52C451.669 273.83 451.793 274.126 452.014 274.345C452.235 274.563 452.534 274.686 452.847 274.686H466.924C467.236 274.686 467.536 274.563 467.757 274.345C467.978 274.126 468.102 273.83 468.102 273.52ZM439.959 273.52C439.959 273.211 439.835 272.914 439.614 272.696C439.393 272.477 439.094 272.354 438.781 272.354H424.645C424.333 272.354 424.033 272.477 423.812 272.696C423.592 272.914 423.467 273.211 423.467 273.52C423.467 273.83 423.592 274.126 423.812 274.345C424.033 274.563 424.333 274.686 424.645 274.686H438.781C439.094 274.686 439.393 274.563 439.614 274.345C439.835 274.126 439.959 273.83 439.959 273.52ZM411.817 273.52C411.817 273.211 411.693 272.914 411.472 272.696C411.251 272.477 410.951 272.354 410.639 272.354H396.562C396.25 272.354 395.95 272.477 395.729 272.696C395.508 272.914 395.384 273.211 395.384 273.52C395.384 273.83 395.508 274.126 395.729 274.345C395.95 274.563 396.25 274.686 396.562 274.686H410.639C410.951 274.686 411.251 274.563 411.472 274.345C411.693 274.126 411.817 273.83 411.817 273.52ZM383.663 273.52C383.663 273.211 383.539 272.914 383.318 272.696C383.097 272.477 382.797 272.354 382.485 272.354H368.419C368.107 272.354 367.807 272.477 367.587 272.696C367.366 272.914 367.241 273.211 367.241 273.52C367.241 273.83 367.366 274.126 367.587 274.345C367.807 274.563 368.107 274.686 368.419 274.686H382.485C382.797 274.686 383.097 274.563 383.318 274.345C383.539 274.126 383.663 273.83 383.663 273.52ZM355.52 273.52C355.52 273.211 355.396 272.914 355.175 272.696C354.954 272.477 354.655 272.354 354.342 272.354H340.277C339.965 272.354 339.665 272.477 339.444 272.696C339.223 272.914 339.099 273.211 339.099 273.52C339.099 273.83 339.223 274.126 339.444 274.345C339.665 274.563 339.965 274.686 340.277 274.686H354.342C354.655 274.686 354.954 274.563 355.175 274.345C355.396 274.126 355.52 273.83 355.52 273.52ZM327.378 273.52C327.378 273.211 327.254 272.914 327.033 272.696C326.812 272.477 326.512 272.354 326.2 272.354H312.17C311.858 272.354 311.558 272.477 311.337 272.696C311.116 272.914 310.992 273.211 310.992 273.52C310.992 273.83 311.116 274.126 311.337 274.345C311.558 274.563 311.858 274.686 312.17 274.686H326.306C326.6 274.66 326.873 274.526 327.071 274.31C327.27 274.094 327.379 273.812 327.378 273.52ZM299.236 273.52C299.236 273.211 299.111 272.914 298.891 272.696C298.67 272.477 298.37 272.354 298.058 272.354H283.922C283.609 272.354 283.309 272.477 283.089 272.696C282.868 272.914 282.744 273.211 282.744 273.52C282.744 273.83 282.868 274.126 283.089 274.345C283.309 274.563 283.609 274.686 283.922 274.686H298.058C298.366 274.68 298.659 274.555 298.875 274.337C299.091 274.119 299.212 273.826 299.212 273.52H299.236ZM271.093 273.52C271.093 273.211 270.969 272.914 270.748 272.696C270.527 272.477 270.228 272.354 269.915 272.354H255.838C255.526 272.354 255.226 272.477 255.005 272.696C254.784 272.914 254.66 273.211 254.66 273.52C254.66 273.83 254.784 274.126 255.005 274.345C255.226 274.563 255.526 274.686 255.838 274.686H269.915C270.228 274.686 270.527 274.563 270.748 274.345C270.969 274.126 271.093 273.83 271.093 273.52ZM242.939 273.52C242.939 273.211 242.815 272.914 242.594 272.696C242.373 272.477 242.073 272.354 241.761 272.354H227.696C227.383 272.354 227.084 272.477 226.863 272.696C226.642 272.914 226.518 273.211 226.518 273.52C226.518 273.83 226.642 274.126 226.863 274.345C227.084 274.563 227.383 274.686 227.696 274.686H241.761C242.073 274.686 242.373 274.563 242.594 274.345C242.815 274.126 242.939 273.83 242.939 273.52ZM214.797 273.52C214.797 273.211 214.672 272.914 214.451 272.696C214.231 272.477 213.931 272.354 213.619 272.354H199.553C199.241 272.354 198.941 272.477 198.72 272.696C198.499 272.914 198.375 273.211 198.375 273.52C198.375 273.83 198.499 274.126 198.72 274.345C198.941 274.563 199.241 274.686 199.553 274.686H213.619C213.931 274.686 214.231 274.563 214.451 274.345C214.672 274.126 214.797 273.83 214.797 273.52ZM186.654 273.52C186.654 273.211 186.53 272.914 186.309 272.696C186.088 272.477 185.789 272.354 185.476 272.354H171.399C171.087 272.354 170.787 272.477 170.566 272.696C170.345 272.914 170.221 273.211 170.221 273.52C170.221 273.83 170.345 274.126 170.566 274.345C170.787 274.563 171.087 274.686 171.399 274.686H185.476C185.789 274.686 186.088 274.563 186.309 274.345C186.53 274.126 186.654 273.83 186.654 273.52ZM158.512 273.52C158.512 273.211 158.388 272.914 158.167 272.696C157.946 272.477 157.646 272.354 157.334 272.354H143.198C142.885 272.354 142.586 272.477 142.365 272.696C142.144 272.914 142.02 273.211 142.02 273.52C142.02 273.83 142.144 274.126 142.365 274.345C142.586 274.563 142.885 274.686 143.198 274.686H157.334C157.646 274.686 157.946 274.563 158.167 274.345C158.388 274.126 158.512 273.83 158.512 273.52ZM130.369 273.52C130.369 273.211 130.245 272.914 130.024 272.696C129.803 272.477 129.504 272.354 129.191 272.354H115.055C114.743 272.354 114.443 272.477 114.222 272.696C114.001 272.914 113.877 273.211 113.877 273.52C113.877 273.83 114.001 274.126 114.222 274.345C114.443 274.563 114.743 274.686 115.055 274.686H129.191C129.504 274.686 129.803 274.563 130.024 274.345C130.245 274.126 130.369 273.83 130.369 273.52ZM102.215 273.52C102.215 273.211 102.091 272.914 101.87 272.696C101.649 272.477 101.349 272.354 101.037 272.354H86.9717C86.6593 272.354 86.3597 272.477 86.1388 272.696C85.9178 272.914 85.7937 273.211 85.7937 273.52C85.7937 273.83 85.9178 274.126 86.1388 274.345C86.3597 274.563 86.6593 274.686 86.9717 274.686H101.037C101.349 274.686 101.649 274.563 101.87 274.345C102.091 274.126 102.215 273.83 102.215 273.52ZM562.813 264.344C564.268 261.591 565.028 258.531 565.028 255.424V250.212C565.028 249.903 564.904 249.606 564.683 249.387C564.462 249.169 564.162 249.046 563.85 249.046C563.537 249.046 563.238 249.169 563.017 249.387C562.796 249.606 562.672 249.903 562.672 250.212V255.424C562.673 258.153 562.006 260.841 560.728 263.259C560.652 263.395 560.604 263.545 560.587 263.699C560.57 263.854 560.584 264.01 560.629 264.159C560.674 264.308 560.748 264.447 560.848 264.567C560.948 264.687 561.071 264.786 561.21 264.858C561.349 264.93 561.501 264.974 561.657 264.988C561.814 265.001 561.971 264.983 562.121 264.935C562.27 264.887 562.408 264.81 562.527 264.709C562.646 264.607 562.743 264.483 562.813 264.344ZM565.028 236.278V222.356C565.028 222.047 564.904 221.75 564.683 221.532C564.462 221.313 564.162 221.19 563.85 221.19C563.537 221.19 563.238 221.313 563.017 221.532C562.796 221.75 562.672 222.047 562.672 222.356V236.278C562.672 236.587 562.796 236.884 563.017 237.103C563.238 237.321 563.537 237.444 563.85 237.444C564.162 237.444 564.462 237.321 564.683 237.103C564.904 236.884 565.028 236.587 565.028 236.278ZM565.028 208.423V203.595C565.049 200.339 564.239 197.13 562.672 194.267C562.597 194.133 562.496 194.015 562.375 193.92C562.254 193.824 562.115 193.754 561.966 193.711C561.817 193.669 561.661 193.656 561.508 193.674C561.354 193.691 561.205 193.738 561.07 193.813C560.799 193.962 560.599 194.212 560.513 194.506C560.427 194.801 560.462 195.117 560.61 195.387C561.994 197.889 562.719 200.696 562.719 203.549V208.376C562.719 208.685 562.843 208.982 563.064 209.2C563.285 209.419 563.584 209.542 563.897 209.542C564.209 209.542 564.509 209.419 564.73 209.2C564.951 208.982 565.075 208.685 565.075 208.376L565.028 208.423ZM552.07 186.63C552.162 186.335 552.131 186.015 551.986 185.742C551.84 185.469 551.59 185.264 551.292 185.172C549.437 184.613 547.507 184.33 545.567 184.333H536.956C536.644 184.333 536.344 184.456 536.123 184.674C535.902 184.893 535.778 185.19 535.778 185.499C535.778 185.808 535.902 186.105 536.123 186.323C536.344 186.542 536.644 186.665 536.956 186.665H545.567C547.272 186.66 548.968 186.912 550.597 187.411C550.714 187.429 550.833 187.429 550.951 187.411C551.186 187.401 551.413 187.321 551.602 187.182C551.791 187.042 551.933 186.85 552.011 186.63H552.07ZM524.069 185.464C524.069 185.155 523.944 184.858 523.724 184.639C523.503 184.421 523.203 184.298 522.891 184.298H508.755C508.442 184.298 508.143 184.421 507.922 184.639C507.701 184.858 507.577 185.155 507.577 185.464C507.577 185.773 507.701 186.07 507.922 186.288C508.143 186.507 508.442 186.63 508.755 186.63H522.832C523.138 186.63 523.433 186.512 523.652 186.301C523.872 186.09 524.001 185.802 524.01 185.499L524.069 185.464ZM495.914 185.464C495.914 185.155 495.79 184.858 495.569 184.639C495.348 184.421 495.049 184.298 494.736 184.298H480.624C480.312 184.298 480.012 184.421 479.791 184.639C479.57 184.858 479.446 185.155 479.446 185.464C479.446 185.773 479.57 186.07 479.791 186.288C480.012 186.507 480.312 186.63 480.624 186.63H494.689C494.994 186.627 495.285 186.508 495.503 186.297C495.72 186.086 495.846 185.8 495.856 185.499L495.914 185.464ZM467.772 185.464C467.772 185.155 467.648 184.858 467.427 184.639C467.206 184.421 466.906 184.298 466.594 184.298H452.47C452.157 184.298 451.858 184.421 451.637 184.639C451.416 184.858 451.292 185.155 451.292 185.464C451.292 185.773 451.416 186.07 451.637 186.288C451.858 186.507 452.157 186.63 452.47 186.63H466.488C466.794 186.63 467.089 186.512 467.309 186.301C467.529 186.09 467.657 185.802 467.666 185.499L467.772 185.464ZM439.63 185.464C439.63 185.155 439.505 184.858 439.285 184.639C439.064 184.421 438.764 184.298 438.452 184.298H424.316C424.003 184.298 423.704 184.421 423.483 184.639C423.262 184.858 423.138 185.155 423.138 185.464C423.138 185.773 423.262 186.07 423.483 186.288C423.704 186.507 424.003 186.63 424.316 186.63H438.393C438.699 186.63 438.993 186.512 439.213 186.301C439.433 186.09 439.561 185.802 439.571 185.499L439.63 185.464ZM411.487 185.464C411.487 185.155 411.363 184.858 411.142 184.639C410.921 184.421 410.622 184.298 410.309 184.298H396.173C395.861 184.298 395.561 184.421 395.34 184.639C395.119 184.858 394.995 185.155 394.995 185.464C394.995 185.773 395.119 186.07 395.34 186.288C395.561 186.507 395.861 186.63 396.173 186.63H410.25C410.557 186.63 410.851 186.512 411.071 186.301C411.291 186.09 411.419 185.802 411.428 185.499L411.487 185.464ZM383.345 185.464C383.345 185.155 383.221 184.858 383 184.639C382.779 184.421 382.479 184.298 382.167 184.298H368.031C367.718 184.298 367.419 184.421 367.198 184.639C366.977 184.858 366.853 185.155 366.853 185.464C366.853 185.773 366.977 186.07 367.198 186.288C367.419 186.507 367.718 186.63 368.031 186.63H382.108C382.414 186.63 382.709 186.512 382.929 186.301C383.148 186.09 383.277 185.802 383.286 185.499L383.345 185.464ZM355.191 185.464C355.191 185.155 355.066 184.858 354.846 184.639C354.625 184.421 354.325 184.298 354.013 184.298H339.888C339.576 184.298 339.276 184.421 339.055 184.639C338.834 184.858 338.71 185.155 338.71 185.464C338.71 185.773 338.834 186.07 339.055 186.288C339.276 186.507 339.576 186.63 339.888 186.63H353.954C354.26 186.63 354.554 186.512 354.774 186.301C354.994 186.09 355.122 185.802 355.132 185.499L355.191 185.464ZM327.048 185.464C327.048 185.155 326.924 184.858 326.703 184.639C326.482 184.421 326.183 184.298 325.87 184.298H311.746C311.434 184.298 311.134 184.421 310.913 184.639C310.692 184.858 310.568 185.155 310.568 185.464C310.568 185.773 310.692 186.07 310.913 186.288C311.134 186.507 311.434 186.63 311.746 186.63H325.811C326.118 186.63 326.412 186.512 326.632 186.301C326.852 186.09 326.98 185.802 326.989 185.499L327.048 185.464ZM298.906 185.464C298.906 185.155 298.782 184.858 298.561 184.639C298.34 184.421 298.04 184.298 297.728 184.298H283.592C283.279 184.298 282.98 184.421 282.759 184.639C282.538 184.858 282.414 185.155 282.414 185.464C282.414 185.773 282.538 186.07 282.759 186.288C282.98 186.507 283.279 186.63 283.592 186.63H297.669C297.975 186.63 298.27 186.512 298.49 186.301C298.709 186.09 298.838 185.802 298.847 185.499L298.906 185.464ZM270.763 185.464C270.763 185.155 270.639 184.858 270.418 184.639C270.197 184.421 269.898 184.298 269.585 184.298H255.449C255.137 184.298 254.837 184.421 254.616 184.639C254.395 184.858 254.271 185.155 254.271 185.464C254.271 185.773 254.395 186.07 254.616 186.288C254.837 186.507 255.137 186.63 255.449 186.63H269.585C269.881 186.615 270.161 186.491 270.368 186.281C270.576 186.072 270.696 185.792 270.704 185.499L270.763 185.464ZM242.621 185.464C242.621 185.155 242.497 184.858 242.276 184.639C242.055 184.421 241.755 184.298 241.443 184.298H227.354C227.042 184.298 226.742 184.421 226.521 184.639C226.3 184.858 226.176 185.155 226.176 185.464C226.176 185.773 226.3 186.07 226.521 186.288C226.742 186.507 227.042 186.63 227.354 186.63H241.431C241.729 186.618 242.012 186.495 242.222 186.285C242.432 186.075 242.553 185.794 242.562 185.499L242.621 185.464ZM214.467 185.464C214.467 185.155 214.343 184.858 214.122 184.639C213.901 184.421 213.601 184.298 213.289 184.298H199.164C198.852 184.298 198.552 184.421 198.331 184.639C198.111 184.858 197.986 185.155 197.986 185.464C197.986 185.773 198.111 186.07 198.331 186.288C198.552 186.507 198.852 186.63 199.164 186.63H213.218C213.524 186.63 213.819 186.512 214.039 186.301C214.259 186.09 214.387 185.802 214.396 185.499L214.467 185.464ZM186.324 185.464C186.324 185.155 186.2 184.858 185.979 184.639C185.758 184.421 185.459 184.298 185.146 184.298H171.022C170.71 184.298 170.41 184.421 170.189 184.639C169.968 184.858 169.844 185.155 169.844 185.464C169.844 185.773 169.968 186.07 170.189 186.288C170.41 186.507 170.71 186.63 171.022 186.63H185.087C185.394 186.63 185.688 186.512 185.908 186.301C186.128 186.09 186.256 185.802 186.265 185.499L186.324 185.464ZM158.182 185.464C158.182 185.155 158.058 184.858 157.837 184.639C157.616 184.421 157.316 184.298 157.004 184.298H142.868C142.555 184.298 142.256 184.421 142.035 184.639C141.814 184.858 141.69 185.155 141.69 185.464C141.69 185.773 141.814 186.07 142.035 186.288C142.256 186.507 142.555 186.63 142.868 186.63H156.945C157.251 186.63 157.546 186.512 157.766 186.301C157.986 186.09 158.114 185.802 158.123 185.499L158.182 185.464ZM130.852 181.966C130.963 181.858 131.05 181.729 131.11 181.587C131.17 181.444 131.201 181.292 131.201 181.138C131.201 180.984 131.17 180.832 131.11 180.69C131.05 180.548 130.963 180.419 130.852 180.31C129.411 178.961 128.266 177.334 127.485 175.529C126.705 173.724 126.308 171.779 126.317 169.816V168.557C126.317 168.248 126.193 167.951 125.972 167.732C125.751 167.514 125.451 167.391 125.139 167.391C124.827 167.391 124.527 167.514 124.306 167.732C124.085 167.951 123.961 168.248 123.961 168.557V169.816C123.952 172.094 124.415 174.349 125.321 176.442C126.226 178.536 127.556 180.424 129.227 181.989C129.445 182.198 129.736 182.315 130.039 182.316C130.311 182.289 130.565 182.169 130.758 181.978L130.852 181.966ZM126.27 154.647V140.725C126.27 140.415 126.146 140.119 125.925 139.9C125.704 139.681 125.404 139.559 125.092 139.559C124.779 139.559 124.48 139.681 124.259 139.9C124.038 140.119 123.914 140.415 123.914 140.725V154.658C123.914 154.967 124.038 155.264 124.259 155.483C124.48 155.701 124.779 155.824 125.092 155.824C125.404 155.824 125.704 155.701 125.925 155.483C126.146 155.264 126.27 154.967 126.27 154.658V154.647ZM126.27 126.779V123.864C126.265 120.4 127.307 117.013 129.262 114.14C129.348 114.007 129.406 113.859 129.435 113.705C129.463 113.55 129.46 113.391 129.426 113.237C129.392 113.083 129.328 112.938 129.237 112.808C129.146 112.679 129.031 112.569 128.897 112.484C128.763 112.399 128.614 112.341 128.457 112.313C128.301 112.285 128.14 112.288 127.985 112.322C127.829 112.355 127.682 112.419 127.552 112.509C127.421 112.599 127.31 112.713 127.224 112.845C124.999 116.102 123.813 119.945 123.82 123.876V126.791C123.82 127.1 123.944 127.397 124.165 127.615C124.386 127.834 124.685 127.957 124.998 127.957C125.31 127.957 125.61 127.834 125.831 127.615C126.051 127.397 126.176 127.1 126.176 126.791L126.27 126.779ZM139.864 106.957C141.177 106.654 142.521 106.501 143.869 106.502H153.635C153.947 106.502 154.247 106.38 154.468 106.161C154.689 105.942 154.813 105.646 154.813 105.336C154.813 105.027 154.689 104.731 154.468 104.512C154.247 104.293 153.947 104.17 153.635 104.17H143.869C142.343 104.171 140.821 104.344 139.334 104.683C139.183 104.718 139.04 104.781 138.914 104.87C138.788 104.959 138.681 105.072 138.599 105.202C138.517 105.332 138.462 105.476 138.436 105.628C138.411 105.779 138.415 105.933 138.45 106.083C138.513 106.344 138.664 106.575 138.878 106.739C139.093 106.902 139.358 106.988 139.628 106.98C139.689 106.963 139.748 106.939 139.805 106.911L139.864 106.957ZM167.889 106.223C170.358 105.791 172.716 104.88 174.829 103.544C176.941 102.207 178.766 100.47 180.199 98.4337C180.376 98.18 180.445 97.8669 180.39 97.5631C180.335 97.2593 180.16 96.9895 179.904 96.813C179.648 96.6371 179.332 96.5691 179.025 96.6237C178.718 96.6783 178.445 96.8512 178.267 97.1045C175.73 100.703 171.853 103.157 167.488 103.926C167.176 103.952 166.887 104.1 166.684 104.337C166.482 104.574 166.384 104.881 166.41 105.191C166.437 105.5 166.586 105.786 166.826 105.986C167.066 106.186 167.376 106.284 167.688 106.258L167.889 106.223ZM183.532 84.4417V74.9738C183.533 73.582 183.707 72.1956 184.051 70.8462C184.106 70.6933 184.128 70.5307 184.116 70.3688C184.104 70.2069 184.058 70.0493 183.98 69.9061C183.903 69.7629 183.797 69.6372 183.668 69.5371C183.539 69.4369 183.39 69.3646 183.231 69.3246C183.072 69.2847 182.906 69.278 182.745 69.3051C182.583 69.3322 182.429 69.3923 182.292 69.4818C182.155 69.5712 182.039 69.688 181.95 69.8245C181.861 69.9611 181.802 70.1145 181.777 70.2748C181.379 71.7982 181.177 73.3653 181.176 74.9388V84.4067C181.176 84.716 181.301 85.0126 181.521 85.2312C181.742 85.4499 182.042 85.5727 182.354 85.5727C182.667 85.5727 182.966 85.4499 183.187 85.2312C183.408 85.0126 183.532 84.716 183.532 84.4067V84.4417ZM191.778 60.7603C194.314 59.2988 197.196 58.5302 200.13 58.5332H204.842C205.155 58.5332 205.454 58.4104 205.675 58.1917C205.896 57.973 206.02 57.6764 206.02 57.3672C206.02 57.058 205.896 56.7614 205.675 56.5427C205.454 56.3241 205.155 56.2012 204.842 56.2012H200.13C196.779 56.1974 193.486 57.0746 190.589 58.7431C190.455 58.8202 190.337 58.9228 190.243 59.0449C190.15 59.167 190.081 59.3063 190.042 59.4547C190.002 59.6031 189.993 59.7577 190.014 59.9097C190.035 60.0617 190.086 60.2081 190.165 60.3405C190.242 60.4731 190.346 60.5892 190.469 60.6822C190.593 60.7751 190.734 60.843 190.883 60.882C191.033 60.921 191.19 60.9303 191.343 60.9094C191.497 60.8885 191.645 60.8378 191.778 60.7603ZM431.148 57.3672C431.148 57.058 431.024 56.7614 430.803 56.5427C430.582 56.3241 430.282 56.2012 429.97 56.2012H415.916C415.604 56.2012 415.304 56.3241 415.083 56.5427C414.863 56.7614 414.738 57.058 414.738 57.3672C414.738 57.6764 414.863 57.973 415.083 58.1917C415.304 58.4104 415.604 58.5332 415.916 58.5332H429.97C430.282 58.5332 430.582 58.4104 430.803 58.1917C431.024 57.973 431.148 57.6764 431.148 57.3672ZM403.006 57.3672C403.006 57.058 402.881 56.7614 402.661 56.5427C402.44 56.3241 402.14 56.2012 401.828 56.2012H387.774C387.462 56.2012 387.162 56.3241 386.941 56.5427C386.72 56.7614 386.596 57.058 386.596 57.3672C386.596 57.6764 386.72 57.973 386.941 58.1917C387.162 58.4104 387.462 58.5332 387.774 58.5332H401.851C402.164 58.5332 402.463 58.4104 402.684 58.1917C402.905 57.973 403.029 57.6764 403.029 57.3672H403.006ZM374.863 57.3672C374.863 57.058 374.739 56.7614 374.518 56.5427C374.297 56.3241 373.998 56.2012 373.685 56.2012H359.632C359.319 56.2012 359.02 56.3241 358.799 56.5427C358.578 56.7614 358.454 57.058 358.454 57.3672C358.454 57.6764 358.578 57.973 358.799 58.1917C359.02 58.4104 359.319 58.5332 359.632 58.5332H373.709C374.021 58.5332 374.321 58.4104 374.542 58.1917C374.763 57.973 374.887 57.6764 374.887 57.3672H374.863ZM346.709 57.3672C346.709 57.058 346.585 56.7614 346.364 56.5427C346.143 56.3241 345.843 56.2012 345.531 56.2012H331.489C331.177 56.2012 330.877 56.3241 330.656 56.5427C330.435 56.7614 330.311 57.058 330.311 57.3672C330.311 57.6764 330.435 57.973 330.656 58.1917C330.877 58.4104 331.177 58.5332 331.489 58.5332H345.555C345.867 58.5332 346.167 58.4104 346.387 58.1917C346.608 57.973 346.733 57.6764 346.733 57.3672H346.709ZM318.567 57.3672C318.567 57.058 318.442 56.7614 318.221 56.5427C318.001 56.3241 317.701 56.2012 317.389 56.2012H303.347C303.034 56.2012 302.735 56.3241 302.514 56.5427C302.293 56.7614 302.169 57.058 302.169 57.3672C302.169 57.6764 302.293 57.973 302.514 58.1917C302.735 58.4104 303.034 58.5332 303.347 58.5332H317.412C317.725 58.5332 318.024 58.4104 318.245 58.1917C318.466 57.973 318.59 57.6764 318.59 57.3672H318.567ZM290.424 57.3672C290.424 57.058 290.3 56.7614 290.079 56.5427C289.858 56.3241 289.559 56.2012 289.246 56.2012H275.193C274.88 56.2012 274.581 56.3241 274.36 56.5427C274.139 56.7614 274.015 57.058 274.015 57.3672C274.015 57.6764 274.139 57.973 274.36 58.1917C274.581 58.4104 274.88 58.5332 275.193 58.5332H289.27C289.582 58.5332 289.882 58.4104 290.103 58.1917C290.324 57.973 290.448 57.6764 290.448 57.3672H290.424ZM262.282 57.3672C262.282 57.058 262.158 56.7614 261.937 56.5427C261.716 56.3241 261.416 56.2012 261.104 56.2012H247.05C246.738 56.2012 246.438 56.3241 246.217 56.5427C245.996 56.7614 245.872 57.058 245.872 57.3672C245.872 57.6764 245.996 57.973 246.217 58.1917C246.438 58.4104 246.738 58.5332 247.05 58.5332H261.127C261.44 58.5332 261.739 58.4104 261.96 58.1917C262.181 57.973 262.305 57.6764 262.305 57.3672H262.282ZM234.139 57.3672C234.139 57.058 234.015 56.7614 233.794 56.5427C233.573 56.3241 233.274 56.2012 232.961 56.2012H218.908C218.595 56.2012 218.296 56.3241 218.075 56.5427C217.854 56.7614 217.73 57.058 217.73 57.3672C217.73 57.6764 217.854 57.973 218.075 58.1917C218.296 58.4104 218.595 58.5332 218.908 58.5332H232.985C233.297 58.5332 233.597 58.4104 233.818 58.1917C234.039 57.973 234.163 57.6764 234.163 57.3672H234.139ZM409.826 362.684V355.688C409.826 355.379 409.702 355.082 409.481 354.864C409.26 354.645 408.961 354.522 408.648 354.522C408.336 354.522 408.036 354.645 407.815 354.864C407.594 355.082 407.47 355.379 407.47 355.688V362.684C407.47 362.994 407.594 363.29 407.815 363.509C408.036 363.727 408.336 363.85 408.648 363.85C408.961 363.85 409.26 363.727 409.481 363.509C409.702 363.29 409.826 362.994 409.826 362.684Z" fill="black"/>
<path opacity="0.1" d="M102.934 182.712V176.742H99.0462V182.712H89.316V176.742H85.4286V182.712H75.6983V176.742H71.858V182.712H67.6054V218.858H107.127V182.712H102.934ZM80.104 210.65H73.8724V204.481H80.104V210.65ZM80.104 200.89H73.8724V194.722H80.104V200.89ZM90.4822 210.65H84.2506V204.481H90.4822V210.65ZM90.4822 200.89H84.2506V194.722H90.4822V200.89ZM100.86 210.65H94.6287V204.481H100.86V210.65ZM100.86 200.89H94.6287V194.722H100.86V200.89Z" fill="black"/>
<path opacity="0.1" d="M331.466 477.71V471.74H327.578V477.71H317.848V471.74H313.961V477.71H304.23V471.74H300.39V477.71H296.196V513.856H335.718V477.71H331.466ZM308.636 505.694H302.404V499.526H308.636V505.694ZM308.636 495.935H302.404V489.72H308.636V495.935ZM319.014 505.694H312.783V499.526H319.014V505.694ZM319.014 495.935H312.783V489.72H319.014V495.935ZM329.392 505.694H323.161V499.526H329.392V505.694ZM329.392 495.935H323.161V489.72H329.392V495.935Z" fill="black"/>
<path opacity="0.1" d="M515.457 43.6201V37.6618H511.57V43.6201H501.828V37.6618H497.941V43.6201H488.222V37.6618H484.323V43.6201H480.129V79.7661H519.651V43.6201H515.457ZM492.628 71.6041H486.396V65.3893H492.628V71.6041ZM492.628 61.8446H486.396V55.6299H492.628V61.8446ZM503.006 71.5574H496.774V65.3893H503.006V71.5574ZM503.006 61.798H496.774V55.6299H503.006V61.798ZM513.384 71.5574H507.153V65.3893H513.384V71.5574ZM513.384 61.798H507.153V55.6299H513.384V61.798Z" fill="black"/>
<path d="M213.1 90.9478H519.38C520.014 90.9462 520.642 91.0685 521.228 91.3074C521.813 91.5464 522.346 91.8974 522.795 92.3404C523.243 92.7834 523.599 93.3097 523.842 93.889C524.085 94.4684 524.21 95.0895 524.21 95.7167V397.174H208.282V95.7167C208.282 95.0904 208.407 94.4703 208.649 93.8917C208.891 93.3131 209.246 92.7874 209.693 92.3446C210.141 91.9017 210.672 91.5504 211.256 91.3108C211.841 91.0711 212.467 90.9478 213.1 90.9478Z" fill="#E5E5E5"/>
<path d="M262.411 193.299C262.414 194.903 261.935 196.472 261.036 197.806C260.138 199.14 258.859 200.181 257.363 200.796C255.866 201.411 254.219 201.572 252.63 201.26C251.041 200.947 249.581 200.175 248.435 199.041C247.289 197.907 246.509 196.462 246.194 194.889C245.878 193.316 246.041 191.686 246.663 190.205C247.284 188.723 248.335 187.458 249.683 186.568C251.031 185.679 252.616 185.205 254.236 185.207C256.403 185.211 258.481 186.064 260.013 187.581C261.546 189.098 262.408 191.154 262.411 193.299Z" fill="#CCCCCC"/>
<path d="M524.21 125.135L483.322 163.998C477.332 163.497 471.308 163.575 465.334 164.231C465.06 164.246 464.785 164.205 464.528 164.111C464.271 164.017 464.036 163.871 463.837 163.683C456.18 157.736 449.042 114.42 445.944 90.948H443.705C446.167 109.604 453.365 158.354 462.459 165.42C462.89 165.79 463.391 166.069 463.934 166.242C464.477 166.414 465.049 166.476 465.616 166.423C470.784 165.82 475.997 165.687 481.189 166.027L448.099 197.509L401.545 163.368C399.223 161.666 396.354 160.861 393.475 161.106C390.596 161.35 387.907 162.628 385.913 164.698C380.906 169.886 377.113 174.084 374.616 177.174C371.317 181.243 366.111 187.668 360.303 194.664L342.998 180.87C353.27 167.461 362.153 155.871 367.395 149.901C378.056 137.763 402.735 107.144 415.693 90.9946H412.842C399.66 107.435 376.065 136.679 365.722 148.455C360.433 154.472 351.586 166.073 341.267 179.506L317.707 160.721C317.839 160.499 317.886 160.237 317.839 159.984C317.792 159.73 317.655 159.502 317.451 159.34C317.248 159.179 316.993 159.095 316.733 159.105C316.473 159.114 316.224 159.216 316.034 159.392L292.898 140.958C292.787 140.85 292.654 140.766 292.508 140.711C292.362 140.657 292.206 140.633 292.05 140.642C291.894 140.651 291.742 140.692 291.603 140.762C291.465 140.833 291.342 140.931 291.244 141.051C291.146 141.171 291.074 141.31 291.033 141.459C290.993 141.608 290.984 141.764 291.008 141.917C291.032 142.069 291.087 142.215 291.171 142.345C291.255 142.475 291.366 142.587 291.496 142.672L314.632 161.106C311.322 165.315 302.027 177.185 295.395 186.047L233.385 138.731C233.15 138.573 232.862 138.51 232.581 138.554C232.3 138.599 232.047 138.748 231.873 138.97C231.699 139.193 231.617 139.473 231.644 139.754C231.671 140.034 231.805 140.294 232.019 140.48L294.076 187.831C292.709 189.673 291.496 191.329 290.542 192.716C283.191 203.21 273.355 213.226 256.097 207.758C238.427 202.161 236.071 189.3 236.071 188.764C236.027 188.502 235.894 188.264 235.694 188.087L219.579 174.387C220.757 165.875 222.135 153.924 223.643 137.075C225.245 119.247 226.506 101.442 227.177 90.9363H224.998C223.219 117.754 220.451 151.323 217.588 172.685L209.142 165.572V168.487L217.223 175.366C215.751 185.86 214.255 192.856 212.876 193.824C211.575 194.421 210.326 195.123 209.142 195.923V198.605C210.595 197.536 212.149 196.611 213.783 195.841C214.738 195.422 216.564 194.675 219.202 177.045L233.88 189.533C234.41 191.994 237.932 204.342 255.379 209.868C258.582 210.926 261.933 211.48 265.309 211.512C278.161 211.512 286.395 202.488 292.332 194.022C293.275 192.67 294.476 191.037 295.866 189.23L319.733 207.443C306.928 223.767 294.323 238.925 285.512 247.087C275.004 256.765 261.752 268.075 250.961 277.147C235.847 267.329 221.676 256.718 221.511 256.578H221.44L221.37 256.52L209.213 249.99V252.497L217.824 257.161C215.762 257.674 212.7 258.409 209.213 259.12V261.184C214.62 260.088 219.073 258.934 220.604 258.526C223.09 260.379 235.694 269.696 249.206 278.487C239.016 287.011 231.442 293.144 231.289 293.272C231.069 293.466 230.931 293.733 230.9 294.022C230.87 294.311 230.949 294.601 231.124 294.835C231.32 295.05 231.591 295.185 231.883 295.213C232.175 295.241 232.467 295.16 232.702 294.986C232.855 294.858 240.689 288.503 251.15 279.758C254.26 281.752 257.381 283.699 260.42 285.507L267.488 289.623C273.567 293.179 280.965 297.517 288.28 302.076L266.935 325.034C266.795 325.191 266.701 325.382 266.662 325.587C266.622 325.792 266.639 326.004 266.711 326.2C266.793 326.39 266.925 326.555 267.092 326.678C267.26 326.801 267.458 326.877 267.665 326.9C267.865 326.9 287.408 328.59 303.288 350.733C317.106 369.995 330.217 386.191 353.365 397.163H358.783C333.256 386.401 319.58 369.634 305.102 349.45C291.59 330.596 275.734 326.06 270.009 324.964L290.2 303.265C304.796 312.488 318.578 322.492 320.216 328.975C322.572 338.432 334.187 350.091 339.759 355.688C341.184 357.122 342.409 358.358 342.68 358.767C344.235 361.099 354.46 366.824 356.451 367.955L356.698 368.048C358.701 368.608 370.999 371.919 380.753 371.919C385.842 371.919 390.236 371.021 392.121 368.351C395.137 364.107 403.901 357.274 410.969 351.794C415.964 347.899 420.287 344.541 421.865 342.664C422.301 342.139 424.304 340.332 427.508 337.44L435.825 345.672L372.33 397.128H375.864L437.415 347.235L448.394 358.102L404.042 397.128H407.4L450.762 358.976C450.874 358.874 450.963 358.749 451.024 358.611C451.085 358.472 451.117 358.323 451.117 358.172C451.117 358.021 451.085 357.871 451.024 357.733C450.963 357.594 450.874 357.47 450.762 357.367L439.111 345.836L492.439 302.6L510.557 317.035L443.564 375.977C442.414 376.992 441.601 378.328 441.233 379.81C440.866 381.291 440.961 382.848 441.506 384.275C442.05 385.702 443.019 386.932 444.285 387.803C445.55 388.674 447.053 389.144 448.594 389.153C450.35 389.148 452.05 388.547 453.412 387.45L523.338 327.215L524.328 328.007V323.437L523.279 324.335L514.008 316.954L524.328 307.871V304.921L512.253 315.543L494.206 301.166L524.21 276.808V274.01L492.286 299.802L480.954 290.765C495.95 277.811 511.405 264.519 524.186 253.535V250.608C515.187 258.339 497.493 273.555 479.187 289.366L456.805 271.538C476.513 252.322 503.018 226.309 507.211 221.237C514.279 212.678 517.071 187.749 510.298 175.833C506.21 168.639 496.162 165.479 486.196 164.289L524.175 128.143L524.21 125.135ZM512.183 318.481L521.43 325.85L451.834 385.806C450.74 386.717 449.326 387.16 447.902 387.039C446.478 386.918 445.162 386.241 444.241 385.159C443.321 384.077 442.873 382.677 442.996 381.267C443.119 379.858 443.802 378.555 444.895 377.644L512.183 318.481ZM376.336 178.561C378.692 175.565 382.614 171.309 387.503 166.225C389.124 164.549 391.307 163.516 393.642 163.319C395.977 163.121 398.305 163.773 400.19 165.152L446.462 199.036L409.697 234.016L362.023 196.005C369.974 186.397 376.171 178.736 376.336 178.526V178.561ZM341.62 182.596L358.854 196.331C352.328 204.202 345.201 212.655 339.252 219.499L322.76 206.953C329.216 198.791 335.636 190.419 341.62 182.596ZM297.115 187.353C303.712 178.526 312.995 166.68 316.317 162.447L339.877 181.208C333.881 189.055 327.449 197.427 321.029 205.601L297.115 187.353ZM286.961 248.58C295.878 240.418 308.565 225.05 321.429 208.691L337.791 221.179C332.278 227.452 328.002 232.011 326.553 232.839C322.631 235.066 291.755 250.189 277.395 257.22C280.741 254.258 283.969 251.355 286.973 248.58H286.961ZM289.682 300.443C282.39 295.884 274.91 291.512 268.478 287.745C265.945 286.265 263.589 284.889 261.492 283.641C258.653 281.95 255.744 280.143 252.846 278.289C258.512 273.532 264.826 268.168 271.058 262.758C273.155 261.732 322.466 237.677 327.602 234.774C329.263 233.83 333.869 228.944 339.629 222.391H339.688C339.859 222.393 340.028 222.354 340.182 222.279C340.335 222.204 340.469 222.095 340.572 221.96C340.668 221.836 340.737 221.692 340.771 221.539C340.806 221.386 340.806 221.227 340.772 221.074C346.921 214.078 354.177 205.391 360.539 197.754L408.059 235.532L383.616 258.77H383.557L345.578 305.037L311.451 278.557C311.224 278.397 310.946 278.322 310.668 278.345C310.389 278.369 310.129 278.489 309.932 278.686L289.682 300.443ZM390.154 367.138C386.278 372.619 365.239 368.211 357.287 365.972C352.764 363.442 345.366 358.976 344.4 357.554C343.413 356.351 342.346 355.214 341.208 354.149C335.777 348.692 324.48 337.324 322.242 328.497C320.44 321.35 306.622 311.17 291.614 301.679L310.886 280.971L345.048 307.567C345.282 307.733 345.57 307.808 345.857 307.778C346.143 307.748 346.409 307.615 346.603 307.404L383.58 262.35L395.148 361.845C393.316 363.443 391.647 365.216 390.165 367.138H390.154ZM426.518 335.237C422.831 338.525 420.475 340.694 419.957 341.3C418.532 342.991 414.067 346.454 409.355 350.103C405.232 353.321 400.814 356.773 397.127 359.968L385.559 260.018L409.803 236.966L453.459 271.678C442.268 282.592 433.669 290.905 433.433 291.127C433.264 291.299 433.153 291.519 433.115 291.757L426.518 335.237ZM479.234 292.246L490.507 301.236L437.368 344.308L428.98 336.006C439.182 326.935 458.666 310.028 479.246 292.246H479.234ZM477.467 290.835C458.913 306.868 439.995 323.285 429.169 332.916L435.295 292.479C437.05 290.777 445.107 282.977 455.25 273.101L477.467 290.835ZM455.085 270.139L411.499 235.38L448.335 200.4L492.863 233.048C482.261 243.554 467.324 258.199 455.061 270.139H455.085ZM508.389 176.859C514.668 187.936 512.041 211.897 505.515 219.791C504.102 221.505 499.99 225.761 494.395 231.381L449.914 198.733L484.158 166.26C494.501 167.298 504.643 170.364 508.366 176.906L508.389 176.859Z" fill="white"/>
<path d="M513.325 361.81H335.907V392.091H513.325V361.81Z" fill="white"/>
<path d="M359.537 376.268H347.863V389.479H359.537V376.268Z" fill="#E01C40"/>
<path d="M375.664 375.988H363.99V389.479H375.664V375.988Z" fill="#E01C40"/>
<path d="M391.791 372.968H380.117V389.479H391.791V372.968Z" fill="#E01C40"/>
<path d="M407.918 380.676H396.244V389.479H407.918V380.676Z" fill="#E01C40"/>
<path d="M424.045 371.861H412.371V389.479H424.045V371.861Z" fill="#E01C40"/>
<path d="M440.183 377.096H428.509V389.479H440.183V377.096Z" fill="#E01C40"/>
<path d="M456.31 382.868H444.636V389.479H456.31V382.868Z" fill="#E01C40"/>
<path d="M472.449 379.568H460.763V389.479H472.449V379.568Z" fill="#E01C40"/>
<path d="M488.564 382.32H476.89V389.479H488.564V382.32Z" fill="#E01C40"/>
<path d="M504.702 371.861H493.028V389.479H504.702V371.861Z" fill="#E01C40"/>
<path d="M209.142 397.175H288.068C282.661 394.609 274.533 390.575 273.543 389.118C272.059 386.914 263.884 372.922 259.407 372.187C254.931 371.453 253.458 376.606 253.458 376.606L263.118 392.067L259.407 389.852C259.407 389.852 250.478 380.279 248.252 378.81C246.025 377.341 248.252 371.453 248.994 367.033C249.736 362.614 254.884 359.676 256.427 355.991C257.97 352.307 256.427 341.265 256.427 337.592C256.427 333.919 249.736 322.865 245.271 314.027C240.807 305.189 225.94 288.27 217.753 284.586C214.989 283.46 212.078 282.726 209.107 282.405L209.142 397.175Z" fill="#CCCCCC"/>
<path d="M394.795 178.573L382.897 193.299L397.775 212.445L425.293 198.453L394.795 178.573Z" fill="#CCCCCC"/>
<path d="M409.673 244.837L392.568 261.032L399.26 297.097L417.848 302.251L423.809 286.789L441.656 269.859L409.673 244.837Z" fill="#CCCCCC"/>
<path d="M213.1 90.9478H519.38C520.014 90.9462 520.642 91.0685 521.228 91.3074C521.813 91.5464 522.346 91.8974 522.795 92.3404C523.243 92.7834 523.599 93.3097 523.842 93.889C524.085 94.4684 524.21 95.0895 524.21 95.7167V397.174H208.282V95.7167C208.282 95.0904 208.407 94.4703 208.649 93.8917C208.891 93.3131 209.246 92.7874 209.693 92.3446C210.141 91.9017 210.672 91.5504 211.256 91.3108C211.841 91.0711 212.467 90.9478 213.1 90.9478V90.9478Z" stroke="#263238" stroke-linecap="round" stroke-linejoin="round"/>
<path d="M213.1 90.9478H519.38C520.014 90.9462 520.642 91.0685 521.228 91.3074C521.813 91.5464 522.346 91.8974 522.795 92.3404C523.243 92.7834 523.599 93.3097 523.842 93.889C524.085 94.4684 524.21 95.0895 524.21 95.7167V149.831H208.282V95.7167C208.282 95.0904 208.407 94.4703 208.649 93.8917C208.891 93.3131 209.246 92.7874 209.693 92.3446C210.141 91.9017 210.672 91.5504 211.256 91.3108C211.841 91.0711 212.467 90.9478 213.1 90.9478Z" fill="#E01C40" stroke="#263238" stroke-linecap="round" stroke-linejoin="round"/>
<path d="M478.091 127.782H228.944V138.089H478.091V127.782Z" fill="white" stroke="#263238" stroke-linecap="round" stroke-linejoin="round"/>
<path d="M519.616 90.948H228.744V117.463H524.21V95.4604C524.208 94.8653 524.088 94.2764 523.856 93.7273C523.625 93.1782 523.286 92.6799 522.859 92.2607C522.432 91.8415 521.926 91.5098 521.369 91.2845C520.813 91.0593 520.217 90.9449 519.616 90.948Z" fill="#808080" stroke="#263238" stroke-linecap="round" stroke-linejoin="round"/>
<path d="M213.1 90.9478H519.38C520.014 90.9462 520.642 91.0685 521.228 91.3074C521.813 91.5464 522.346 91.8974 522.795 92.3404C523.243 92.7834 523.599 93.3097 523.842 93.889C524.085 94.4684 524.21 95.0895 524.21 95.7167V108.193H208.282V95.7167C208.282 95.0904 208.407 94.4703 208.649 93.8917C208.891 93.3131 209.246 92.7874 209.693 92.3446C210.141 91.9017 210.672 91.5504 211.256 91.3108C211.841 91.0711 212.467 90.9478 213.1 90.9478Z" fill="#263238" stroke="#263238" stroke-linecap="round" stroke-linejoin="round"/>
<path d="M511.205 102.223C512.519 102.223 513.584 101.169 513.584 99.8679C513.584 98.5671 512.519 97.5126 511.205 97.5126C509.891 97.5126 508.825 98.5671 508.825 99.8679C508.825 101.169 509.891 102.223 511.205 102.223Z" fill="white"/>
<path d="M501.38 102.223C502.695 102.223 503.76 101.169 503.76 99.8679C503.76 98.5671 502.695 97.5126 501.38 97.5126C500.066 97.5126 499.001 98.5671 499.001 99.8679C499.001 101.169 500.066 102.223 501.38 102.223Z" fill="white"/>
<path d="M491.556 102.223C492.87 102.223 493.935 101.169 493.935 99.8679C493.935 98.5671 492.87 97.5126 491.556 97.5126C490.242 97.5126 489.176 98.5671 489.176 99.8679C489.176 101.169 490.242 102.223 491.556 102.223Z" fill="white"/>
<path d="M441.632 195.888H402.405C401.674 195.886 400.949 196.028 400.273 196.304C399.597 196.579 398.983 196.985 398.466 197.496C397.948 198.007 397.537 198.614 397.257 199.283C396.977 199.951 396.833 200.668 396.833 201.392V237.864C396.833 238.588 396.977 239.304 397.257 239.973C397.537 240.641 397.948 241.248 398.466 241.76C398.983 242.271 399.597 242.676 400.273 242.952C400.949 243.228 401.674 243.369 402.405 243.368H414.008L422.537 260.018L430.37 243.403H441.632C443.107 243.403 444.521 242.823 445.564 241.791C446.607 240.758 447.192 239.359 447.192 237.899V201.392C447.192 199.932 446.607 198.532 445.564 197.5C444.521 196.468 443.107 195.888 441.632 195.888Z" fill="#263238" stroke="#263238" stroke-linecap="round" stroke-linejoin="round"/>
<path d="M422.018 272.308C424.419 272.308 426.365 270.381 426.365 268.005C426.365 265.629 424.419 263.703 422.018 263.703C419.618 263.703 417.672 265.629 417.672 268.005C417.672 270.381 419.618 272.308 422.018 272.308Z" fill="#E01C40" stroke="#263238" stroke-linecap="round" stroke-linejoin="round"/>
<path d="M287.868 164.639C290.269 164.639 292.215 162.713 292.215 160.337C292.215 157.96 290.269 156.034 287.868 156.034C285.467 156.034 283.521 157.96 283.521 160.337C283.521 162.713 285.467 164.639 287.868 164.639Z" fill="#E01C40" stroke="#263238" stroke-linecap="round" stroke-linejoin="round"/>
<path d="M349.501 266.571C349.498 267.421 349.242 268.252 348.763 268.958C348.283 269.664 347.604 270.214 346.809 270.538C346.015 270.861 345.141 270.945 344.299 270.778C343.456 270.61 342.683 270.2 342.076 269.598C341.469 268.995 341.057 268.229 340.89 267.394C340.723 266.56 340.81 265.696 341.139 264.91C341.469 264.125 342.026 263.453 342.74 262.981C343.455 262.509 344.295 262.257 345.154 262.257C345.726 262.257 346.292 262.368 346.82 262.585C347.348 262.802 347.828 263.12 348.232 263.521C348.636 263.922 348.956 264.397 349.173 264.921C349.391 265.444 349.502 266.005 349.501 266.571Z" fill="#E01C40" stroke="#263238" stroke-linecap="round" stroke-linejoin="round"/>
<path d="M252.811 238.447C255.211 238.447 257.157 236.521 257.157 234.144C257.157 231.768 255.211 229.842 252.811 229.842C250.41 229.842 248.464 231.768 248.464 234.144C248.464 236.521 250.41 238.447 252.811 238.447Z" fill="#E01C40" stroke="#263238" stroke-linecap="round" stroke-linejoin="round"/>
<path d="M270.846 342.443C270.846 343.296 270.59 344.13 270.111 344.839C269.632 345.549 268.952 346.102 268.155 346.428C267.359 346.755 266.482 346.84 265.637 346.674C264.791 346.507 264.015 346.097 263.405 345.493C262.796 344.89 262.38 344.121 262.212 343.284C262.044 342.447 262.13 341.58 262.46 340.792C262.79 340.003 263.349 339.329 264.066 338.855C264.782 338.381 265.625 338.128 266.487 338.128C267.643 338.128 268.752 338.583 269.569 339.392C270.387 340.201 270.846 341.298 270.846 342.443Z" fill="#E01C40" stroke="#263238" stroke-linecap="round" stroke-linejoin="round"/>
<path d="M472.366 339.621C474.767 339.621 476.713 337.694 476.713 335.318C476.713 332.942 474.767 331.016 472.366 331.016C469.965 331.016 468.019 332.942 468.019 335.318C468.019 337.694 469.965 339.621 472.366 339.621Z" fill="#E01C40" stroke="#263238" stroke-linecap="round" stroke-linejoin="round"/>
<path d="M494.642 207.093C497.043 207.093 498.989 205.167 498.989 202.791C498.989 200.414 497.043 198.488 494.642 198.488C492.241 198.488 490.295 200.414 490.295 202.791C490.295 205.167 492.241 207.093 494.642 207.093Z" fill="#E01C40" stroke="#263238" stroke-linecap="round" stroke-linejoin="round"/>
<path d="M471.33 165.362C473.73 165.362 475.676 163.436 475.676 161.06C475.676 158.683 473.73 156.757 471.33 156.757C468.929 156.757 466.983 158.683 466.983 161.06C466.983 163.436 468.929 165.362 471.33 165.362Z" fill="#E01C40" stroke="#263238" stroke-linecap="round" stroke-linejoin="round"/>
<path d="M483.192 272.587C483.192 273.441 482.936 274.276 482.457 274.986C481.977 275.695 481.296 276.248 480.499 276.574C479.702 276.901 478.825 276.985 477.979 276.818C477.133 276.65 476.356 276.238 475.747 275.634C475.138 275.029 474.724 274.26 474.557 273.422C474.39 272.584 474.478 271.717 474.81 270.928C475.142 270.14 475.702 269.467 476.42 268.995C477.139 268.522 477.983 268.271 478.845 268.273C479.417 268.273 479.983 268.385 480.511 268.602C481.04 268.819 481.519 269.137 481.923 269.538C482.327 269.938 482.647 270.414 482.865 270.937C483.082 271.461 483.194 272.021 483.192 272.587Z" fill="#E01C40" stroke="#263238" stroke-linecap="round" stroke-linejoin="round"/>
<path d="M363.283 232.116C365.684 232.116 367.63 230.189 367.63 227.813C367.63 225.437 365.684 223.511 363.283 223.511C360.883 223.511 358.937 225.437 358.937 227.813C358.937 230.189 360.883 232.116 363.283 232.116Z" fill="#E01C40" stroke="#263238" stroke-linecap="round" stroke-linejoin="round"/>
<path d="M112.499 416.262C112.499 416.262 115.15 445.412 116.033 451.533C116.917 457.655 113.088 461.444 109.26 465.525C105.431 469.606 103.959 478.06 103.959 484.473C103.959 490.886 103.075 522.951 103.075 524.992C103.075 527.032 102.486 531.987 102.486 531.987C102.486 531.987 111.91 531.696 113.088 531.696C114.266 531.696 118.684 515.08 119.862 510.416C121.04 505.752 130.169 476.311 133.703 468.149C137.237 459.987 137.237 453.865 138.71 450.659C140.182 447.452 141.949 421.217 141.949 421.217C141.949 421.217 157.852 448.91 158.441 452.699C159.03 456.489 159.325 457.363 157.852 460.57C156.38 463.776 153.14 469.606 153.435 482.141C153.729 494.675 160.679 516.853 160.679 516.853L161.563 530.553C161.563 530.553 166.864 532.594 169.514 533.76C172.165 534.926 176.288 528.804 176.288 528.804C176.288 528.804 176.111 518.578 175.817 510.999C175.522 503.42 177.584 476.019 178.762 471.355C179.94 466.691 181.707 456.489 180.529 450.076C179.351 443.663 175.522 414.221 175.522 414.221C175.522 414.221 130.758 416.845 125.163 415.97C119.567 415.096 112.205 414.804 112.205 414.804L112.499 416.262Z" fill="#263238" stroke="#263238" stroke-linecap="round" stroke-linejoin="round"/>
<path d="M118.389 522.076L120.156 531.113C120.156 531.113 127.518 537.234 130.463 539.566C133.409 541.898 135.175 541.315 135.175 543.356C135.175 545.396 133.114 548.603 128.108 549.477C123.101 550.352 116.327 549.186 110.732 547.437C107.549 546.52 104.71 544.695 102.568 542.19C102.568 542.19 99.4821 542.901 99.4821 539.403C99.4821 535.905 102.027 527.976 102.027 527.976C102.027 527.976 100.849 523.639 102.027 523.056C103.205 522.473 107.198 526.74 107.198 526.74C107.198 526.74 107.787 516.538 118.389 522.076Z" fill="white" stroke="#263238" stroke-linecap="round" stroke-linejoin="round"/>
<path d="M135.022 544.359C134.417 544.178 133.768 544.211 133.185 544.452C129.961 546.252 126.337 547.232 122.636 547.306C118.936 547.379 115.275 546.543 111.981 544.872C105.042 541.584 101.496 538.284 99.8355 536.348C99.6226 537.366 99.5004 538.4 99.4703 539.438C99.4703 542.936 102.557 542.225 102.557 542.225C104.706 544.719 107.549 546.532 110.732 547.437C116.327 549.186 123.101 550.352 128.107 549.477C132.348 548.731 134.469 546.318 135.022 544.359Z" fill="#D2F4DC" stroke="#263238" stroke-linecap="round" stroke-linejoin="round"/>
<path d="M178.868 521.808C178.015 521.65 177.134 521.773 176.36 522.159C175.585 522.544 174.96 523.171 174.58 523.942C173.26 526.682 171.941 530.343 171.941 530.343C169.716 530.141 167.513 529.751 165.356 529.177C164.357 528.624 163.464 527.902 162.717 527.044C162.717 527.044 160.078 521.867 158.429 523.697C156.78 525.528 160.078 531.614 160.078 531.614C160.078 531.614 157.44 536.488 157.44 539.543C157.514 541.633 157.961 543.693 158.759 545.63C161.897 546.339 165.096 546.749 168.313 546.854C172.601 546.854 172.93 545.63 177.548 545.63C182.166 545.63 194.04 548.37 197.986 547.46C201.933 546.551 205.573 543.799 205.243 541.98C204.913 540.161 191.39 535.579 187.102 532.839C182.814 530.099 182.166 530.402 181.506 529.177C180.847 527.953 178.868 521.808 178.868 521.808Z" fill="white" stroke="#263238" stroke-linecap="round" stroke-linejoin="round"/>
<path d="M205.255 542.19C200.708 546.737 194.653 546.038 189.517 545.012C183.2 543.588 176.715 543.031 170.245 543.356C166.129 543.59 162.001 543.453 157.911 542.948C158.127 543.838 158.411 544.711 158.759 545.56C161.897 546.269 165.096 546.679 168.313 546.784C172.601 546.784 172.93 545.56 177.548 545.56C182.166 545.56 194.04 548.3 197.986 547.39C201.744 546.527 205.196 544.021 205.255 542.19Z" fill="#E01C40" stroke="#263238" stroke-linecap="round" stroke-linejoin="round"/>
<path d="M105.725 405.768L104.842 418.781C104.842 418.781 126.929 423.736 145.188 423.223C163.447 422.71 182.884 415.131 182.884 415.131L179.056 401.559C179.056 401.559 138.709 401.302 130.758 400.778C122.806 400.253 117.8 394.773 114.855 395.554C111.91 396.335 108.376 405.477 108.376 405.477L105.725 405.768Z" fill="white" stroke="#263238" stroke-linecap="round" stroke-linejoin="round"/>
<path d="M179.056 392.067L181.707 405.476C181.707 405.476 176.111 408.683 159.03 410.14C141.949 411.598 120.156 409.557 120.156 409.557L116.033 400.812L114.561 411.015H106.02C105.196 411.036 104.381 410.835 103.664 410.432L106.315 399.646C106.315 399.646 107.493 388.861 113.088 386.237C118.684 383.614 123.396 386.529 127.224 390.027C131.053 393.525 135.47 392.942 141.655 392.942C147.839 392.942 174.05 390.318 174.05 390.318C174.05 390.318 178.467 388.861 179.056 392.067Z" fill="#969696" stroke="#263238" stroke-linecap="round" stroke-linejoin="round"/>
<path d="M170.221 292.957C170.221 292.957 180.823 319.775 185.24 329.395C189.658 339.014 193.781 350.091 193.192 356.213C192.603 362.334 185.24 378.367 185.24 378.367C185.24 378.367 178.172 332.31 176.7 327.646C175.227 322.982 168.454 297.038 168.454 297.038C168.454 297.038 165.509 291.5 170.221 292.957Z" fill="#E01C40" stroke="#263238" stroke-linecap="round" stroke-linejoin="round"/>
<path d="M112.393 282.79C112.393 282.79 106.208 289.145 104.3 296.91C102.392 304.676 100.978 401.629 100.978 403.273C100.978 404.917 108.046 401.151 109.53 400.451C111.015 399.751 116.905 388.686 116.905 388.686L119.755 399.973C119.755 399.973 132.831 398.562 143.775 398.562C154.719 398.562 183.474 395.974 183.474 395.974C183.474 395.974 186.089 380.209 185.829 371.732C185.57 363.256 183.768 349.858 183.768 347.736C183.768 345.614 174.733 300.91 171.411 294.322C168.089 287.734 163.801 281.846 163.082 281.379C162.364 280.913 153.811 275.957 145.73 275.549C137.649 275.141 132.183 272.961 125.045 276.26C117.906 279.56 112.393 282.79 112.393 282.79Z" fill="#E01C40" stroke="#263238" stroke-linecap="round" stroke-linejoin="round"/>
<path d="M158.747 311.73C158.747 311.73 162.788 334.794 163.978 342.559C165.167 350.325 167.783 380.676 167.783 385.153V395.74" stroke="#263238" stroke-linecap="round" stroke-linejoin="round"/>
<path d="M151.62 321.618C151.62 321.618 156.132 344.681 158.512 358.557C160.891 372.432 160.208 392.207 160.208 392.207" stroke="#263238" stroke-linecap="round" stroke-linejoin="round"/>
<path d="M125.94 323.495L146.39 321.618L147.097 326.084L127.365 327.728" stroke="#263238" stroke-linecap="round" stroke-linejoin="round"/>
<path d="M177.053 318.784L165.167 319.729L166.122 323.728L176.582 322.795" stroke="#263238" stroke-linecap="round" stroke-linejoin="round"/>
<path d="M142.821 261.604C142.821 261.604 131.877 259.493 128.555 260.904C125.233 262.315 122.135 267.958 121.181 269.847C120.227 271.736 110.249 275.677 109.53 278.546C108.812 281.414 109.295 286.078 110.485 287.256C111.674 288.433 118.566 287.967 120.238 288.422C121.911 288.877 144.246 303.486 148.051 305.842C151.856 308.197 158.512 311.485 159.466 310.506C160.42 309.526 166.357 294.998 167.276 288.2C168.195 281.402 167.029 279.723 163.942 274.08C160.856 268.437 148.522 262.35 142.821 261.604Z" fill="#263238" stroke="#263238" stroke-linecap="round" stroke-linejoin="round"/>
<path d="M139.487 243.018C139.487 243.018 141.16 253.372 141.16 256.194C141.16 259.015 136.648 272.436 136.648 272.436C136.648 272.436 145.683 291.733 150.678 297.143C155.673 302.554 158.052 303.731 158.052 303.731C158.052 303.731 158.759 292.666 159.478 287.489C160.196 282.312 167.724 267.177 167.724 267.177C167.724 267.177 156.403 268.903 154.978 261.604C153.552 254.305 154.023 247.962 152.622 244.195C151.22 240.429 142.35 241.362 139.487 243.018Z" fill="white" stroke="#263238" stroke-linecap="round" stroke-linejoin="round"/>
<path d="M155.555 263.714L150.124 262.711L150.572 267.375C150.572 267.375 153.917 275.992 160.173 280.411C160.499 280.642 160.837 280.856 161.186 281.053C162.482 277.345 167.688 267.201 167.688 267.201C167.688 267.201 157.852 269.882 155.555 263.714Z" fill="#263238" stroke="#263238" stroke-linecap="round" stroke-linejoin="round"/>
<path d="M174.686 240.126L174.309 246.586C174.309 246.586 180.199 250.807 180.788 252.847C181.377 254.888 177.937 257.511 177.937 257.511C177.937 257.511 177.407 268.658 176.429 270.407C175.451 272.156 170.539 272.296 167.83 272.319C165.12 272.343 151.679 268.518 149.359 266.489C147.038 264.46 144.234 257.161 144.234 257.161C144.234 257.161 141.266 246.749 140.806 245.163C140.347 243.577 141.984 241.409 149.052 239.205C156.12 237.001 175.063 237.094 174.686 240.126Z" fill="white" stroke="#263238" stroke-linecap="round" stroke-linejoin="round"/>
<path d="M142.915 247.717C142.915 247.717 144.541 251.308 147.627 249.046C149.565 247.371 150.859 245.085 151.291 242.575L133.291 247.402C133.291 247.402 131.889 254.654 134.716 258.106C137.543 261.557 141.666 259.598 141.431 256.637C141.195 253.675 142.915 247.717 142.915 247.717Z" fill="#263238" stroke="#263238" stroke-linecap="round" stroke-linejoin="round"/>
<path d="M173.025 261.184C173.025 261.184 169.102 261.301 166.793 259.248" stroke="#263238" stroke-linecap="round" stroke-linejoin="round"/>
<path d="M168.76 247.04C169.067 248.101 168.902 249.081 168.395 249.221C167.889 249.361 167.217 248.615 166.923 247.553C166.628 246.492 166.793 245.513 167.3 245.373C167.806 245.233 168.454 246.026 168.76 247.04Z" fill="#263238"/>
<path d="M132.996 248.113C132.996 248.113 143.598 246.364 156.427 242.785C169.255 239.205 174.827 237.153 174.827 237.153L169.102 219.266C168.412 217.7 167.15 216.451 165.568 215.768C161.904 214.136 154.294 214.509 148.817 215.349C141.007 216.515 134.963 218.742 131.842 224.257C129.432 228.76 128.81 233.992 130.098 238.925C130.958 241.828 132.996 248.113 132.996 248.113Z" fill="#263238" stroke="#263238" stroke-linecap="round" stroke-linejoin="round"/>
<path d="M152.08 243.997C152.08 243.997 171.552 242.959 178.997 241.374C186.442 239.788 192.579 230.973 192.579 230.973L174.745 233.305C166.247 234.44 158.322 238.178 152.08 243.997Z" fill="#263238" stroke="#263238" stroke-linecap="round" stroke-linejoin="round"/>
<path d="M144.682 249.244C144.682 249.244 143.033 244.324 138.792 245.991C134.551 247.658 136.895 255.82 140.052 259.085C143.209 262.35 147.12 257.849 147.12 257.849" fill="white"/>
<path d="M144.682 249.244C144.682 249.244 143.033 244.324 138.792 245.991C134.551 247.658 136.895 255.82 140.052 259.085C143.209 262.35 147.12 257.849 147.12 257.849" stroke="#263238" stroke-linecap="round" stroke-linejoin="round"/>
<path d="M165.403 348.634L186.124 333.301C186.264 333.202 186.436 333.156 186.607 333.173L201.132 334.549C201.308 334.567 201.474 334.64 201.606 334.756C201.738 334.873 201.831 335.028 201.87 335.199C201.909 335.37 201.892 335.549 201.823 335.71C201.755 335.872 201.636 336.008 201.485 336.1L183.014 347.025L165.403 348.634Z" fill="#263238" stroke="#263238" stroke-linecap="round" stroke-linejoin="round"/>
<path d="M152.563 349.613C154.592 349.428 156.509 348.612 158.04 347.281C160.173 345.159 163.93 338.805 165.639 338.338C169.559 337.477 173.528 336.846 177.525 336.449C179.197 336.449 180.14 337.615 178.703 339.038C177.265 340.46 170.622 343.515 170.622 343.515L169.915 345.847C169.915 345.847 187.973 343.737 189.411 343.737C190.022 343.778 190.597 344.037 191.031 344.465C191.464 344.894 191.725 345.464 191.767 346.069C191.767 347.002 187.962 349.835 186.784 351.001C183.835 353.466 180.735 355.748 177.501 357.834C175.84 358.767 158.724 357.356 158.017 357.356C157.31 357.356 152.304 358.522 152.304 358.522L152.563 349.613Z" fill="white" stroke="#263238" stroke-linecap="round" stroke-linejoin="round"/>
<path d="M189.658 348.203C189.658 348.203 182.048 349.858 180.387 350.791C178.726 351.724 173.013 350.791 173.013 350.791" stroke="#263238" stroke-linecap="round" stroke-linejoin="round"/>
<path d="M184.18 352.913L178.95 354.557L173.484 354.79" stroke="#263238" stroke-linecap="round" stroke-linejoin="round"/>
<path d="M125.469 304.909C125.704 309.142 120.474 334.794 120.474 334.794L121.652 338.56V339.504L154.695 348.436C154.695 348.436 154.695 357.379 153.27 361.378C152.153 365.006 151.28 368.702 150.654 372.444C150.654 372.444 136.153 368.946 124.267 364.911C112.381 360.877 93.8277 355.035 90.2701 351.024C86.7126 347.013 88.8448 336.916 89.316 335.26C89.7872 333.604 103.099 299.021 105.714 294.322C108.329 289.623 112.134 285.145 117.129 286.556C122.123 287.967 125.928 294.322 126.399 297.143" fill="#E01C40"/>
<path d="M125.469 304.909C125.704 309.142 120.474 334.794 120.474 334.794L121.652 338.56V339.504L154.695 348.436C154.695 348.436 154.695 357.379 153.27 361.378C152.153 365.006 151.28 368.702 150.654 372.444C150.654 372.444 136.153 368.946 124.267 364.911C112.381 360.877 93.8277 355.035 90.2701 351.024C86.7126 347.013 88.8448 336.916 89.316 335.26C89.7872 333.604 103.099 299.021 105.714 294.322C108.329 289.623 112.134 285.145 117.129 286.556C122.123 287.967 125.928 294.322 126.399 297.143" stroke="#263238" stroke-linecap="round" stroke-linejoin="round"/>
<path d="M103.864 340.309C105.677 339.246 107.581 338.345 109.554 337.615C111.698 337.149 120.015 339.026 120.015 339.026" stroke="#263238" stroke-linecap="round" stroke-linejoin="round"/>
<path d="M96.9376 344.203C96.9376 344.203 98.9402 343.037 101.379 341.673" stroke="#263238" stroke-linecap="round" stroke-linejoin="round"/>
<path d="M111.78 332.438C110.613 331.889 109.377 331.497 108.105 331.272C106.444 331.272 99.0698 334.77 99.0698 334.77" stroke="#263238" stroke-linecap="round" stroke-linejoin="round"/>
<path d="M118.095 335.26C118.095 335.26 116.728 334.607 114.985 333.826" stroke="#263238" stroke-linecap="round" stroke-linejoin="round"/>
</svg>
