<svg width="33" height="46" viewBox="0 0 33 46" fill="none" xmlns="http://www.w3.org/2000/svg">
<path d="M16.3611 1.37489e-09C12.035 0.0036133 7.88609 1.71901 4.82057 4.77152C1.75504 7.82403 0.0220143 11.9656 0 16.2917C0 22.7778 3.63889 28.2083 6.30556 32.1667L6.79167 32.8889C9.44483 36.7342 12.2911 40.4427 15.3194 44L16.375 45.2361L17.4306 44C20.4585 40.4423 23.3048 36.7339 25.9583 32.8889L26.4444 32.1528C29.0972 28.1944 32.7361 22.7778 32.7361 16.2917C32.7141 11.9632 30.9791 7.81953 27.9106 4.76663C24.8421 1.71372 20.6896 -5.60501e-05 16.3611 1.37489e-09ZM16.3611 23.6111C14.5591 23.6111 12.7976 23.0768 11.2993 22.0756C9.80094 21.0745 8.63314 19.6515 7.94354 17.9867C7.25394 16.3218 7.07351 14.4899 7.42507 12.7225C7.77662 10.9551 8.64437 9.33168 9.91858 8.05747C11.1928 6.78326 12.8162 5.91551 14.5836 5.56396C16.351 5.2124 18.1829 5.39283 19.8478 6.08243C21.5126 6.77203 22.9356 7.93982 23.9367 9.43814C24.9379 10.9365 25.4722 12.698 25.4722 14.5C25.4722 16.9164 24.5123 19.2339 22.8036 20.9425C21.095 22.6512 18.7775 23.6111 16.3611 23.6111Z" fill="black" fill-opacity="0.54"/>
</svg>
