<svg width="500" height="500" viewBox="0 0 500 500" fill="none" xmlns="http://www.w3.org/2000/svg">
<path d="M407.81 366.31C407.806 366.23 407.806 366.15 407.81 366.07V365.4C407.81 364.78 407.81 363.92 407.81 362.81C407.81 360.54 407.76 357.28 407.73 353.17L407.88 353.32L358.21 353.42L358.46 353.17V359.83C358.46 362.02 358.46 364.18 358.46 366.29L358.21 366.04L393.62 366.16L404.06 366.23H406.89H407.63H407.89C407.89 366.23 407.82 366.23 407.66 366.23H406.95H404.18L393.79 366.3L358.21 366.41H357.97V366.16C357.97 364.05 357.97 361.89 357.97 359.7V353.04C358.48 352.53 358.11 352.9 358.23 352.79L407.9 352.89H408V353.04C408 357.19 407.93 360.48 407.91 362.77C407.91 363.86 407.91 364.77 407.91 365.33C407.91 365.59 407.91 365.8 407.91 365.97C407.91 366.14 407.82 366.32 407.81 366.31Z" fill="#E0E0E0"/>
<path d="M86.17 453.44C86.1629 453.36 86.1629 453.28 86.17 453.2C86.17 453.02 86.17 452.8 86.17 452.53C86.17 451.91 86.17 451.04 86.17 449.94C86.17 447.67 86.17 444.41 86.09 440.3L86.24 440.45L36.57 440.55L36.82 440.3V443.64C36.82 444.75 36.82 445.86 36.82 446.95V453.42L36.57 453.17L71.97 453.28L82.42 453.35H85.25H85.99H86.25H86.02H85.31H82.54L72.15 453.42L36.57 453.54H36.33V453.29C36.33 451.177 36.33 449.02 36.33 446.82V440.17L36.59 439.91L86.26 440.01H86.41V440.17C86.41 444.32 86.35 447.61 86.33 449.9C86.33 450.99 86.33 451.84 86.33 452.45V453.1C86.18 453.37 86.17 453.44 86.17 453.44Z" fill="#E0E0E0"/>
<path d="M258.84 139.35C258.84 139.35 258.84 139.26 258.84 139.11V138.44C258.84 137.82 258.84 136.96 258.84 135.85C258.84 133.58 258.84 130.32 258.75 126.21L258.9 126.36L209.23 126.46L209.48 126.21V139.33L209.23 139.08L244.63 139.19L255.08 139.27H257.9H258.64H258.9C258.9 139.27 258.83 139.27 258.67 139.27H257.97H255.19L244.8 139.34L209.23 139.46H208.98V132.75C208.98 131.65 208.98 130.54 208.98 129.43V126.09C209.49 125.58 209.13 125.95 209.24 125.83L258.91 125.93H259V126.09C259 130.24 258.93 133.53 258.91 135.82C258.91 136.91 258.91 137.76 258.91 138.37C258.91 138.64 258.91 138.85 258.91 139.02C258.91 139.19 258.85 139.36 258.84 139.35Z" fill="#E0E0E0"/>
<path d="M265.58 126.21C265.573 126.127 265.573 126.043 265.58 125.96C265.58 125.77 265.58 125.54 265.58 125.26C265.58 124.61 265.58 123.74 265.58 122.63C265.58 120.32 265.52 117.07 265.48 113.07L265.66 113.25L235.81 113.32C235.59 113.55 236.12 113.01 236.07 113.07V119.82C236.07 122.01 236.07 124.15 236.07 126.19L235.83 125.95L257.18 126.06L263.4 126.13H265.08H265.68C265.5 126.144 265.32 126.144 265.14 126.13H263.51L257.35 126.19L235.83 126.31H235.59V126.07C235.59 124.07 235.59 121.89 235.59 119.7V112.95C235.53 113 236.07 112.47 235.84 112.69L265.69 112.76H265.87V112.95C265.87 116.95 265.8 120.29 265.77 122.62C265.77 123.71 265.77 124.62 265.77 125.21C265.77 125.8 265.59 126.22 265.58 126.21Z" fill="#E0E0E0"/>
<path d="M81.49 322.24H36.24V334.21H81.49V322.24Z" fill="#EBEBEB"/>
<path d="M363.74 275.9H318.49V287.87H363.74V275.9Z" fill="#EBEBEB"/>
<path d="M156.5 32.2H42.62V220.7H156.5V32.2Z" fill="#E0E0E0"/>
<path d="M152.71 32.2H38.83V220.7H152.71V32.2Z" fill="#EBEBEB"/>
<path d="M147.86 36.02H43.68V216.88H147.86V36.02Z" fill="#FAFAFA"/>
<path d="M127.57 59.52H63.51V193.38H127.57V59.52Z" fill="#EBEBEB"/>
<path d="M63.51 146C63.37 133.5 74.61 121.29 86.99 119.54C92.9 118.71 99.17 119.88 104.69 117.62C114.53 113.62 117.69 100.5 127.58 96.62L128.03 193.37H63.51V146Z" fill="#E0E0E0"/>
<path d="M460.22 37.23H370.97V166.59H460.22V37.23Z" fill="#E0E0E0"/>
<path d="M455.75 37.23H366.5V166.59H455.75V37.23Z" fill="#F5F5F5"/>
<path d="M444.66 51.24H377.59V152.58H444.66V51.24Z" fill="white"/>
<path d="M444.66 152.58C444.66 152.58 444.66 152.41 444.66 152.09C444.66 151.77 444.66 151.27 444.66 150.65C444.66 149.37 444.66 147.51 444.66 145.09C444.66 140.23 444.66 133.16 444.6 124.21C444.6 106.34 444.53 81.04 444.49 51.21L444.71 51.43H377.65L377.89 51.19C377.89 89.42 377.89 124.67 377.84 152.53L377.65 152.34L426.47 152.44H439.96H443.5H444.72H443.54H440.03H426.59L377.65 152.54H377.46V152.35C377.46 124.49 377.46 89.24 377.46 51.01V51H377.71H444.77H445V51.22C445 81.08 444.92 106.43 444.9 124.34C444.9 133.26 444.9 140.34 444.84 145.17C444.84 147.57 444.84 149.42 444.84 150.68C444.84 151.29 444.84 151.76 444.84 152.09C444.84 152.42 444.66 152.58 444.66 152.58Z" fill="#E0E0E0"/>
<path d="M456 37.23C455.54 38.0462 455.008 38.8193 454.41 39.54C453.41 40.93 451.9 42.81 450.22 44.85C448.54 46.89 447 48.7 445.81 50C445.208 50.7285 444.538 51.3982 443.81 52C444.318 51.2167 444.886 50.4745 445.51 49.78L449.81 44.56L454.1 39.35C454.676 38.5943 455.312 37.8854 456 37.23Z" fill="#E0E0E0"/>
<path d="M445 152.25C448.338 157.551 452.263 162.458 456.7 166.88L445 152.25Z" fill="white"/>
<path d="M456.7 166.88C455.97 166.336 455.3 165.715 454.7 165.03C453.144 163.441 451.672 161.772 450.29 160.03C448.902 158.3 447.607 156.497 446.41 154.63C445.87 153.88 445.411 153.076 445.04 152.23C445.643 152.925 446.195 153.664 446.69 154.44C447.69 155.82 449.06 157.71 450.69 159.73C452.32 161.75 453.84 163.51 454.97 164.73C455.597 165.405 456.175 166.123 456.7 166.88Z" fill="#E0E0E0"/>
<path d="M366.49 166.49C370.39 161.677 374.287 156.87 378.18 152.07L366.49 166.49Z" fill="white"/>
<path d="M378.18 152.07C376.42 154.618 374.531 157.075 372.52 159.43C370.639 161.882 368.636 164.238 366.52 166.49C368.278 163.937 370.168 161.477 372.18 159.12C374.053 156.665 376.056 154.311 378.18 152.07Z" fill="#E0E0E0"/>
<path d="M366.5 37.23C368.518 39.3795 370.414 41.6396 372.18 44C374.077 46.2604 375.843 48.6276 377.47 51.09C375.455 48.9336 373.562 46.6668 371.8 44.3C369.91 42.0383 368.141 39.6783 366.5 37.23Z" fill="#E0E0E0"/>
<path d="M423.77 71.82H401.31V135.59H423.77V71.82Z" fill="#E0E0E0"/>
<path d="M459.82 213.35H414.57V225.32H459.82V213.35Z" fill="#EBEBEB"/>
<path d="M440.68 237.93C440.676 237.857 440.676 237.783 440.68 237.71V237.1C440.68 236.54 440.68 235.75 440.68 234.74C440.68 232.68 440.68 229.74 440.6 225.96L440.74 226.1L395.49 226.19C395.6 226.09 395.26 226.42 395.72 225.96V237.96L395.49 237.74L427.74 237.84L437.26 237.9H439.83H440.5H440.74C440.74 237.9 440.68 237.9 440.53 237.9H439.89H437.36L427.9 237.96L395.49 238.07H395.27V237.84C395.27 235.92 395.27 233.95 395.27 231.95V226L395.5 225.77L440.75 225.86H440.89V226C440.89 229.78 440.83 232.78 440.82 234.87C440.82 235.87 440.82 236.64 440.82 237.19C440.82 237.43 440.82 237.63 440.82 237.78C440.82 237.93 440.69 237.94 440.68 237.93Z" fill="#E0E0E0"/>
<path d="M477.88 476.28C477.88 476.42 375.88 476.54 250.01 476.54C124.14 476.54 22.12 476.42 22.12 476.28C22.12 476.14 124.13 476 250 476C375.87 476 477.88 476.13 477.88 476.28Z" fill="#263238"/>
<path d="M406.94 438.43C406.94 438.43 401.5 401.01 401.94 379.24C402.38 357.47 401.94 332.98 401.94 332.98H404.45C404.45 332.98 402.75 376.19 404.6 402.25C406.45 428.31 411.31 438.43 411.31 438.43H406.96" fill="#263238"/>
<path d="M423.15 290.88C422.76 289.555 421.962 288.386 420.87 287.54C419.27 286.54 417.19 286.95 415.41 287.54C407.84 290.22 401.12 304.35 398.06 311.78L408.12 345.67C426.27 328.87 429.42 306.77 423.15 290.88Z" fill="#455A64"/>
<path d="M420.28 288.91C420.246 289.062 420.196 289.209 420.13 289.35L419.64 290.59C419.2 291.65 418.58 293.21 417.84 295.13C416.36 298.98 414.47 304.36 412.78 310.42C411.09 316.48 409.95 322.07 409.23 326.14C408.87 328.14 408.6 329.82 408.43 330.96C408.35 331.49 408.27 331.96 408.22 332.27C408.199 332.422 408.165 332.573 408.12 332.72C408.096 332.568 408.096 332.412 408.12 332.26C408.12 331.91 408.2 331.47 408.25 330.94C408.38 329.79 408.6 328.13 408.92 326.09C410.625 315.434 413.527 305.005 417.57 295C418.34 293.09 419 291.55 419.49 290.5L420.06 289.3C420.119 289.162 420.193 289.032 420.28 288.91Z" fill="#263238"/>
<path d="M403.64 353.84C394.22 348.63 388.64 338.84 388.14 328.07C387.78 320.55 390.09 313.16 392.71 306.07C392.864 305.431 393.24 304.868 393.77 304.48C394.197 304.325 394.657 304.28 395.106 304.35C395.556 304.42 395.98 304.602 396.34 304.88C403.19 308.78 407.34 316.22 409.55 323.79C411.137 328.81 411.668 334.105 411.11 339.34C410.245 344.842 407.624 349.918 403.64 353.81" fill="#455A64"/>
<path d="M403.64 353.84C403.628 353.69 403.628 353.54 403.64 353.39C403.64 353.04 403.64 352.61 403.64 352.08C403.64 350.96 403.59 349.32 403.5 347.31C403.233 342.059 402.649 336.83 401.75 331.65C400.7 325.58 399.44 320.14 398.5 316.21C398.04 314.29 397.66 312.71 397.38 311.56C397.27 311.04 397.17 310.62 397.09 310.29C397.051 310.143 397.027 309.992 397.02 309.84C397.09 309.975 397.141 310.12 397.17 310.27L397.54 311.52C397.85 312.6 398.28 314.18 398.78 316.14C399.78 320.05 401.11 325.49 402.16 331.58C403.066 336.773 403.611 342.022 403.79 347.29C403.85 349.29 403.85 350.96 403.79 352.09C403.79 352.61 403.79 353.09 403.74 353.39C403.728 353.544 403.694 353.695 403.64 353.84Z" fill="#263238"/>
<g opacity="0.3">
<path d="M403.64 353.84C394.22 348.63 388.64 338.84 388.14 328.07C387.78 320.55 390.09 313.16 392.71 306.07C392.864 305.431 393.24 304.868 393.77 304.48C394.197 304.325 394.657 304.28 395.106 304.35C395.556 304.42 395.98 304.602 396.34 304.88C403.19 308.78 407.34 316.22 409.55 323.79C411.137 328.81 411.668 334.105 411.11 339.34C410.245 344.842 407.624 349.918 403.64 353.81" fill="black"/>
</g>
<path d="M414.28 411.09C423.56 413.09 431.2 419.67 440.16 422.86C446.08 424.96 452.78 425.71 457.51 429.86C456.37 426.99 453.68 425.09 451.07 423.45C443.7 418.848 435.834 415.094 427.62 412.26C423.41 410.8 418.84 409.59 414.54 410.78" fill="#455A64"/>
<path d="M400.87 419.36C389.24 419.17 377.01 409.27 365.44 408.68C377.54 404.77 394.88 407.97 400.87 419.36Z" fill="#455A64"/>
<path d="M405.41 391.48C411.31 389.35 417.79 389.25 423.99 390.21C430.162 391.35 436.23 392.999 442.13 395.14C441.53 391.14 438.26 388.08 435.2 385.39C432.954 383.298 430.513 381.426 427.91 379.8C425.295 378.162 422.266 377.305 419.18 377.33C417.329 377.45 415.521 377.942 413.865 378.777C412.208 379.612 410.737 380.773 409.54 382.19C407.19 384.755 405.74 388.017 405.41 391.48Z" fill="#455A64"/>
<path d="M381.55 378.64C374.24 372.4 363.16 373.01 353.55 373.23C369.004 380.593 383.579 389.673 397 400.3C397.38 393.5 390.79 386.53 381.55 378.64Z" fill="#455A64"/>
<g opacity="0.3">
<path d="M381.55 378.64C374.24 372.4 363.16 373.01 353.55 373.23C369.004 380.593 383.579 389.673 397 400.3C397.38 393.5 390.79 386.53 381.55 378.64Z" fill="black"/>
</g>
<path d="M408.7 370C412.287 367.529 416.066 365.349 420 363.48C423.85 361.73 427.44 358.95 431.16 356.93C435.98 354.32 440.16 350.69 444.59 347.45C449.02 344.21 453.88 341.29 459.29 340.45C454.832 339.65 450.247 339.914 445.91 341.22C441.59 342.525 437.377 344.164 433.31 346.12C427.61 348.69 421.8 351.33 417.14 355.5C412.48 359.67 408.25 363.79 408.75 370.03" fill="#455A64"/>
<path d="M439.94 419.36L439.58 419.2L438.58 418.67C437.71 418.21 436.45 417.52 434.87 416.72C434.09 416.31 433.22 415.88 432.28 415.43C431.34 414.98 430.33 414.51 429.28 414.05C426.97 413.015 424.574 412.181 422.12 411.56C419.69 410.886 417.131 410.821 414.67 411.37C413.593 411.597 412.536 411.911 411.51 412.31C410.623 412.669 409.769 413.108 408.96 413.62C407.782 414.364 406.703 415.254 405.75 416.27C405.08 416.99 404.75 417.43 404.75 417.41C404.802 417.287 404.873 417.172 404.96 417.07C405.11 416.85 405.34 416.54 405.66 416.16C406.58 415.086 407.648 414.146 408.83 413.37C409.646 412.832 410.51 412.37 411.41 411.99C412.447 411.569 413.518 411.235 414.61 410.99C417.129 410.402 419.756 410.454 422.25 411.14C424.725 411.772 427.138 412.625 429.46 413.69C430.54 414.17 431.55 414.64 432.46 415.11C433.37 415.58 434.26 416.02 435.03 416.45C436.6 417.28 437.84 418.01 438.69 418.52L439.69 419.11C439.84 419.26 440 419.34 439.94 419.36Z" fill="#263238"/>
<path d="M392.2 413.6C392.449 413.634 392.692 413.705 392.92 413.81C393.57 414.042 394.205 414.316 394.82 414.63C398.912 416.705 402.293 419.954 404.53 423.96C404.865 424.562 405.165 425.183 405.43 425.82C405.54 426.049 405.621 426.291 405.67 426.54C405.6 426.54 405.17 425.54 404.27 424.11C403.11 422.187 401.701 420.425 400.08 418.87C398.458 417.312 396.643 415.967 394.68 414.87C393.17 414.06 392.17 413.67 392.2 413.6Z" fill="#263238"/>
<path d="M366.48 378.06C366.651 378.094 366.819 378.144 366.98 378.21L368.37 378.7L370.57 379.51C371.43 379.83 372.36 380.3 373.41 380.77C378.865 383.287 383.954 386.529 388.54 390.41C391.048 392.564 393.407 394.886 395.6 397.36C397.378 399.383 399.047 401.499 400.6 403.7C401.92 405.58 402.93 407.15 403.6 408.23C403.93 408.74 404.19 409.15 404.39 409.48C404.489 409.619 404.576 409.766 404.65 409.92C404.53 409.798 404.423 409.664 404.33 409.52C404.12 409.25 403.83 408.85 403.47 408.32C402.73 407.26 401.69 405.72 400.34 403.87C398.99 402.02 397.29 399.87 395.28 397.61C393.095 395.167 390.757 392.866 388.28 390.72C383.707 386.872 378.668 383.616 373.28 381.03C372.28 380.55 371.28 380.03 370.47 379.73L368.3 378.85L366.94 378.29C366.781 378.224 366.628 378.147 366.48 378.06Z" fill="#263238"/>
<path d="M422.85 384.94C422.536 384.941 422.223 384.901 421.92 384.82L420.85 384.63C420.44 384.55 419.95 384.54 419.42 384.49C416.657 384.244 413.882 384.793 411.42 386.07C410.072 386.769 408.844 387.677 407.78 388.76C406.897 389.635 406.112 390.604 405.44 391.65C404.84 392.629 404.309 393.648 403.85 394.7C403.88 394.39 403.958 394.086 404.08 393.8C404.378 392.999 404.754 392.229 405.2 391.5C405.844 390.409 406.62 389.401 407.51 388.5C409.027 386.908 410.894 385.691 412.963 384.946C415.032 384.202 417.246 383.95 419.43 384.21C419.96 384.28 420.43 384.31 420.87 384.41L421.93 384.68C422.244 384.737 422.552 384.824 422.85 384.94Z" fill="#263238"/>
<path d="M434.53 348.71C434.389 348.808 434.242 348.899 434.09 348.98L432.79 349.68C431.66 350.29 430.04 351.19 428.07 352.35C426.1 353.51 423.79 354.97 421.33 356.73C418.647 358.606 416.134 360.714 413.82 363.03C412.621 364.221 411.585 365.566 410.74 367.03C409.98 368.49 409.25 369.9 408.59 371.26C407.382 373.65 406.304 376.104 405.36 378.61C404.73 380.302 404.205 382.032 403.79 383.79C403.49 385.03 403.38 385.73 403.34 385.72C403.339 385.549 403.356 385.378 403.39 385.21C403.39 384.87 403.5 384.38 403.63 383.75C403.986 381.97 404.47 380.219 405.08 378.51C405.991 375.979 407.047 373.501 408.24 371.09C408.9 369.72 409.63 368.31 410.38 366.84C411.237 365.344 412.293 363.971 413.52 362.76C415.853 360.428 418.394 358.312 421.11 356.44C423.6 354.69 425.93 353.26 427.92 352.11C429.91 350.96 431.56 350.11 432.71 349.56L434.05 348.92C434.199 348.827 434.36 348.756 434.53 348.71Z" fill="#263238"/>
<path d="M401.94 383.9C401.827 383.576 401.75 383.241 401.71 382.9C401.57 382.18 401.4 381.28 401.2 380.21C400.114 374.3 398.258 368.558 395.68 363.13L394.55 360.64C394.394 360.343 394.267 360.031 394.17 359.71C394.379 359.973 394.554 360.262 394.69 360.57C395 361.14 395.43 361.97 395.95 363C398.68 368.396 400.549 374.186 401.49 380.16C401.67 381.3 401.8 382.23 401.87 382.87C401.924 383.211 401.947 383.555 401.94 383.9Z" fill="#263238"/>
<path d="M401.1 357.46C400.726 353.059 399.439 348.785 397.32 344.91C394.449 339.587 390.448 334.956 385.597 331.344C380.746 327.732 375.163 325.225 369.24 324L395.24 362.74L398.6 369.66C400.88 365.87 401.39 361.85 401.1 357.46Z" fill="#455A64"/>
<path d="M438.38 433.8H377.94V444.51H438.38V433.8Z" fill="#E6637B"/>
<path d="M382.45 442.39L387.6 475.62H427.72L433.87 442.39H382.45Z" fill="#E6637B"/>
<path d="M438.34 444.52C438.34 444.64 424.71 444.74 407.9 444.74C391.09 444.74 377.45 444.64 377.45 444.52C377.45 444.4 391.08 444.31 407.9 444.31C424.72 444.31 438.34 444.41 438.34 444.52Z" fill="#263238"/>
<path d="M336.92 51.45H336.44C333.9 51.0422 331.604 49.7014 330 47.69C329.563 47.1926 329.024 46.7943 328.421 46.5218C327.817 46.2493 327.162 46.1089 326.5 46.11H260.26C258.773 46.1103 257.342 46.6791 256.26 47.7C254.49 49.36 251.76 51.34 248.83 51.34C245.1 51.34 242.42 48.02 241.42 44.72L244.58 43.77C245.1 45.48 246.66 48.04 248.83 48.04C250.28 48.04 252.12 47.04 254.01 45.3C255.696 43.7044 257.929 42.8136 260.25 42.81H326.51C327.644 42.8076 328.765 43.0463 329.799 43.51C330.834 43.9738 331.758 44.6521 332.51 45.5C333.584 46.8602 335.103 47.7985 336.8 48.15C338.56 48.33 340.69 44.15 341.54 41.15L344.72 42.03C344.43 43 342 51.45 336.92 51.45Z" fill="#E0E0E0"/>
<path d="M287.57 458.93H296.18L296.18 24.0699H287.57L287.57 458.93Z" fill="#E0E0E0"/>
<path d="M257.25 464.17H323.93C323.93 462.778 323.377 461.442 322.392 460.458C321.408 459.473 320.072 458.92 318.68 458.92H262.49C261.099 458.923 259.767 459.477 258.784 460.461C257.802 461.445 257.25 462.779 257.25 464.17Z" fill="#E0E0E0"/>
<path d="M312.41 469C312.408 470.476 312.844 471.92 313.663 473.148C314.482 474.377 315.647 475.334 317.011 475.9C318.374 476.466 319.875 476.615 321.323 476.327C322.771 476.04 324.101 475.329 325.145 474.285C326.189 473.241 326.9 471.911 327.187 470.463C327.475 469.015 327.326 467.514 326.76 466.151C326.194 464.787 325.237 463.622 324.008 462.803C322.78 461.984 321.336 461.548 319.86 461.55C317.885 461.553 315.992 462.338 314.595 463.735C313.198 465.132 312.413 467.025 312.41 469Z" fill="#263238"/>
<path d="M259.049 476.329C263.11 475.671 265.87 471.845 265.212 467.784C264.554 463.722 260.728 460.963 256.666 461.621C252.605 462.278 249.846 466.104 250.503 470.166C251.161 474.227 254.987 476.987 259.049 476.329Z" fill="#263238"/>
<path d="M291.821 476.414C295.876 475.719 298.6 471.868 297.905 467.812C297.209 463.757 293.358 461.033 289.303 461.729C285.247 462.424 282.524 466.275 283.219 470.33C283.914 474.386 287.766 477.11 291.821 476.414Z" fill="#263238"/>
<path d="M293.39 45.27C293.39 45.11 300.99 44.98 310.39 44.98C319.79 44.98 327.39 45.11 327.39 45.27C327.39 45.43 319.78 45.56 310.39 45.56C301 45.56 293.39 45.43 293.39 45.27Z" fill="#263238"/>
<path d="M293.54 45.19C293.45 45.33 292.91 44.99 293 44.29C293.09 43.59 293.74 43.43 293.78 43.59C293.82 43.75 293.61 44.01 293.57 44.38C293.53 44.75 293.65 45.08 293.54 45.19Z" fill="#263238"/>
<path d="M287.5 67.72C287.34 67.72 287.21 60.19 287.21 50.92C287.21 41.65 287.34 34.12 287.5 34.12C287.66 34.12 287.78 41.64 287.78 50.92C287.78 60.2 287.65 67.72 287.5 67.72Z" fill="#263238"/>
<path d="M336 151.05H302.23V133C302.235 130.023 303.42 127.17 305.525 125.065C307.63 122.96 310.483 121.775 313.46 121.77H324.73C326.207 121.767 327.671 122.056 329.037 122.619C330.403 123.182 331.644 124.008 332.691 125.051C333.737 126.094 334.568 127.332 335.136 128.696C335.704 130.06 335.997 131.523 336 133V151.05ZM306.67 146.65H331.6V133C331.6 131.189 330.88 129.451 329.6 128.17C328.319 126.89 326.581 126.17 324.77 126.17H313.46C311.649 126.17 309.911 126.89 308.63 128.17C307.35 129.451 306.63 131.189 306.63 133L306.67 146.65Z" fill="#E0E0E0"/>
<path d="M291.9 213.17H347.06V144.86H291.9V213.17Z" fill="#E0E0E0"/>
<path d="M308.1 212.55H347.07V144.85H308.1V212.55Z" fill="#F5F5F5"/>
<path d="M342.15 151.46H313.04V180.57H342.15V151.46Z" fill="white"/>
<path d="M313 180.56C313 180.56 313 180.4 313 180.05C313 179.7 313 179.16 313 178.52C313 177.12 313 175.14 312.93 172.63C312.93 167.48 312.86 160.19 312.81 151.46V151.21H313H342.11L342.4 151.5V159.33C342.4 161.897 342.4 164.403 342.4 166.85C342.4 171.74 342.4 176.35 342.4 180.58V180.83H342.15L321 180.68L315.12 180.62H313.58C313.41 180.633 313.24 180.633 313.07 180.62H313.64H315.22L321.16 180.55L342.16 180.42L341.91 180.67C341.91 176.44 341.91 171.83 341.91 166.94C341.91 164.5 341.91 161.993 341.91 159.42V151.59L342.19 151.87H313.08L313.33 151.63C313.28 160.29 313.24 167.53 313.21 172.63C313.21 175.15 313.16 177.15 313.14 178.57C313.14 179.23 313.14 179.75 313.14 180.15C313.1 180.289 313.053 180.426 313 180.56Z" fill="#263238"/>
<path d="M292.85 144.85C292.85 144.69 304.96 144.57 319.85 144.57C334.74 144.57 346.85 144.69 346.85 144.85C346.85 145.01 334.75 145.14 319.85 145.14C304.95 145.14 292.85 145 292.85 144.85Z" fill="#263238"/>
<path d="M291.9 213.16C291.74 213.16 291.61 197.98 291.61 179.27C291.61 160.56 291.74 145.37 291.9 145.37C292.06 145.37 292.19 160.54 292.19 179.27C292.19 198 292.06 213.16 291.9 213.16Z" fill="#263238"/>
<path d="M308.09 213.16C307.94 213.16 307.81 197.98 307.81 179.27C307.81 160.56 307.94 145.37 308.09 145.37C308.24 145.37 308.38 160.54 308.38 179.27C308.38 198 308.25 213.16 308.09 213.16Z" fill="#263238"/>
<path d="M337.69 190.69H342.15V186.23H337.69V190.69Z" fill="#455A64"/>
<path d="M331.52 190.69H335.99V186.23H331.52V190.69Z" fill="#455A64"/>
<path d="M325.37 190.69H329.83V186.23H325.37V190.69Z" fill="#455A64"/>
<path d="M319.21 190.69H323.67V186.23H319.21V190.69Z" fill="#455A64"/>
<path d="M313.05 190.69H317.51V186.23H313.05V190.69Z" fill="#455A64"/>
<path d="M337.69 196.61H342.15V192.15H337.69V196.61Z" fill="#455A64"/>
<path d="M331.52 196.61H335.99V192.15H331.52V196.61Z" fill="#455A64"/>
<path d="M325.37 196.61H329.83V192.15H325.37V196.61Z" fill="#455A64"/>
<path d="M319.21 196.61H323.67V192.15H319.21V196.61Z" fill="#455A64"/>
<path d="M313.05 196.61H317.51V192.15H313.05V196.61Z" fill="#455A64"/>
<path d="M337.69 202.52H342.15V198.06H337.69V202.52Z" fill="#455A64"/>
<path d="M331.52 202.52H335.99V198.06H331.52V202.52Z" fill="#455A64"/>
<path d="M325.37 202.52H329.83V198.06H325.37V202.52Z" fill="#455A64"/>
<path d="M313.05 202.52H323.68V198.06H313.05V202.52Z" fill="#E6637B"/>
<path d="M314.5 166.49C314.651 166.418 314.813 166.37 314.98 166.35C315.3 166.28 315.76 166.18 316.38 166.1C317.129 165.99 317.891 165.99 318.64 166.1C319.663 166.243 320.609 166.721 321.33 167.46C321.743 167.914 322.029 168.47 322.16 169.07C322.284 169.699 322.327 170.34 322.29 170.98C322.235 171.625 322.235 172.274 322.29 172.92C322.39 173.571 322.671 174.181 323.1 174.68C323.302 174.927 323.579 175.102 323.89 175.178C324.2 175.254 324.527 175.226 324.82 175.1C325.431 174.741 325.895 174.178 326.13 173.51C326.691 172.012 327.064 170.45 327.24 168.86C327.46 167.22 327.24 165.62 327.43 163.98C327.455 163.162 327.731 162.372 328.219 161.716C328.707 161.06 329.384 160.569 330.16 160.31C330.543 160.227 330.94 160.233 331.319 160.328C331.699 160.424 332.052 160.606 332.35 160.86C332.887 161.322 333.311 161.9 333.59 162.55C334.12 163.78 334.3 164.97 334.8 165.9C335.238 166.742 335.94 167.417 336.8 167.82C337.458 168.127 338.174 168.288 338.9 168.29C339.525 168.264 340.144 168.153 340.74 167.96C340.611 168.063 340.466 168.144 340.31 168.2C339.866 168.387 339.392 168.492 338.91 168.51C338.142 168.556 337.375 168.419 336.67 168.11C335.721 167.712 334.933 167.008 334.43 166.11C333.87 165.11 333.65 163.89 333.14 162.76C332.88 162.185 332.498 161.673 332.02 161.26C331.781 161.055 331.497 160.909 331.191 160.834C330.886 160.76 330.567 160.758 330.26 160.83C329.603 161.019 329.035 161.438 328.66 162.01C328.264 162.626 328.023 163.33 327.96 164.06C327.81 165.56 328.02 167.24 327.79 168.93C327.611 170.577 327.218 172.195 326.62 173.74C326.335 174.539 325.765 175.205 325.02 175.61C324.624 175.778 324.185 175.815 323.767 175.714C323.349 175.613 322.975 175.38 322.7 175.05C322.206 174.487 321.886 173.792 321.78 173.05C321.718 172.385 321.718 171.715 321.78 171.05C321.872 170.486 321.85 169.909 321.714 169.354C321.578 168.8 321.332 168.278 320.99 167.82C320.337 167.128 319.478 166.665 318.54 166.5C317.82 166.377 317.088 166.343 316.36 166.4C315.19 166.42 314.51 166.53 314.5 166.49Z" fill="#E6637B"/>
<path d="M226.71 95.5C226.669 96.906 227.09 98.2868 227.91 99.43C229.25 100.96 231.68 101.16 233.83 101.24L255.14 102.03C257.25 102.11 259.66 102.03 261.05 100.63C262.05 99.63 263.67 96.9 263.79 95.52C264.858 82.9473 264.593 70.2969 263 57.78C262.56 54.04 261.85 50.22 259.67 47.04C257.49 43.86 254.73 41.51 249.38 40.44C239.38 38.95 231.01 41.69 228.82 47.07C226.87 51.83 227.18 56.29 226.91 61.37C226.158 72.7323 226.092 84.1296 226.71 95.5ZM241.49 43.6C241.751 43.2589 242.098 42.9925 242.494 42.8275C242.891 42.6625 243.324 42.6047 243.75 42.66C244.352 42.6563 244.939 42.8498 245.421 43.2109C245.903 43.572 246.254 44.0809 246.42 44.66C246.529 45.2305 246.439 45.8212 246.164 46.3329C245.889 46.8446 245.446 47.2461 244.91 47.47C244.349 47.7077 243.729 47.769 243.132 47.6457C242.536 47.5225 241.991 47.2205 241.57 46.78C241.217 46.3286 241.019 45.7758 241.005 45.2032C240.99 44.6305 241.16 44.0685 241.49 43.6Z" fill="#F5F5F5"/>
<path d="M241.49 43.6C241.49 43.6 241.43 43.83 241.32 44.23C241.157 44.7645 241.157 45.3355 241.32 45.87C241.468 46.2429 241.709 46.5714 242.021 46.8237C242.333 47.076 242.704 47.2435 243.1 47.31C243.571 47.4319 244.067 47.4167 244.529 47.2661C244.992 47.1155 245.401 46.8358 245.71 46.46C246.018 46.1108 246.195 45.6649 246.209 45.1994C246.224 44.7339 246.076 44.2778 245.79 43.91C245.547 43.6111 245.242 43.3674 244.898 43.195C244.553 43.0226 244.175 42.9254 243.79 42.91H243.74C243.16 42.8408 242.573 42.9638 242.07 43.26C241.7 43.47 241.57 43.68 241.53 43.66C241.49 43.64 241.53 43.37 241.94 43.07C242.476 42.6435 243.159 42.4458 243.84 42.52H243.79C244.256 42.5108 244.718 42.6078 245.14 42.8036C245.563 42.9994 245.936 43.2888 246.23 43.65C246.596 44.0909 246.794 44.647 246.79 45.22C246.782 45.8249 246.57 46.4095 246.19 46.88C245.814 47.3373 245.313 47.6753 244.749 47.8529C244.184 48.0304 243.58 48.0398 243.01 47.88C242.545 47.7784 242.115 47.5556 241.764 47.2342C241.412 46.9128 241.152 46.5043 241.01 46.05C240.86 45.434 240.923 44.7852 241.19 44.21C241.29 43.76 241.46 43.58 241.49 43.6Z" fill="#263238"/>
<path d="M226.71 95.4999C226.678 95.3485 226.658 95.1946 226.65 95.0399C226.65 94.7099 226.59 94.2699 226.54 93.6999C226.45 92.5199 226.35 90.7799 226.26 88.5299C226.08 84.0399 226.06 77.5299 226.36 69.5299C226.49 65.5299 226.78 61.1299 226.89 56.4099C226.934 53.9489 227.269 51.5018 227.89 49.1199C228.208 47.855 228.721 46.6472 229.41 45.5399C230.173 44.4286 231.152 43.483 232.29 42.7599C234.63 41.3028 237.263 40.3776 240 40.0499C242.837 39.6699 245.713 39.6699 248.55 40.0499C251.536 40.389 254.373 41.5408 256.75 43.3799C259.118 45.37 260.89 47.976 261.87 50.9099C262.75 53.8399 263.304 56.8583 263.52 59.9099C263.84 62.8833 264.097 65.8133 264.29 68.6999C264.67 74.4799 264.77 80.0599 264.6 85.3799C264.513 88.0466 264.377 90.6333 264.19 93.1399C264.14 93.7599 264.09 94.3899 264.04 94.9999C264.017 95.6418 263.882 96.2747 263.64 96.8699C263.164 97.9945 262.557 99.0587 261.83 100.04C261.48 100.542 261.047 100.982 260.55 101.34C260.045 101.667 259.486 101.904 258.9 102.04C257.783 102.273 256.64 102.361 255.5 102.3L249.21 102.05L238.38 101.6L233.94 101.41C232.682 101.404 231.43 101.246 230.21 100.94C229.216 100.699 228.325 100.145 227.67 99.3599C227.238 98.7679 226.95 98.083 226.83 97.3599C226.714 96.7671 226.661 96.1639 226.67 95.5599C226.703 95.7079 226.723 95.8585 226.73 96.0099C226.73 96.3099 226.82 96.7599 226.94 97.3299C227.067 98.0562 227.366 98.7417 227.81 99.3299C228.448 100.076 229.312 100.596 230.27 100.81C231.476 101.091 232.711 101.229 233.95 101.22L238.39 101.37L249.22 101.73L255.52 101.94C256.617 101.998 257.716 101.911 258.79 101.68C259.334 101.566 259.849 101.345 260.306 101.029C260.763 100.713 261.152 100.309 261.45 99.8399C262.149 98.889 262.733 97.8585 263.19 96.7699C263.417 96.2207 263.539 95.634 263.55 95.0399C263.6 94.4299 263.64 93.7999 263.69 93.1799C263.87 90.6733 263.997 88.0933 264.07 85.4399C264.23 80.1399 264.12 74.5699 263.74 68.8199C263.54 65.9399 263.28 63.0166 262.96 60.0499C262.739 57.0536 262.196 54.0898 261.34 51.2099C260.393 48.3733 258.68 45.8539 256.39 43.9299C254.095 42.1519 251.355 41.0381 248.47 40.7099C245.683 40.3349 242.857 40.3349 240.07 40.7099C237.399 41.0129 234.826 41.8933 232.53 43.2899C231.452 43.9808 230.52 44.878 229.79 45.9299C229.129 46.9911 228.637 48.1481 228.33 49.3599C227.716 51.7024 227.381 54.109 227.33 56.5299C227.2 61.2399 226.88 65.6399 226.73 69.6499C226.38 77.6499 226.34 84.1599 226.45 88.6499C226.5 90.8899 226.58 92.6499 226.63 93.8099C226.63 94.3799 226.63 94.8099 226.68 95.1599C226.697 95.2725 226.707 95.3861 226.71 95.4999Z" fill="#263238"/>
<path d="M232.82 96.68L255.21 97.57C256.141 97.6436 257.065 97.3534 257.786 96.7604C258.508 96.1674 258.972 95.3177 259.08 94.39L259.76 66H229.27V93.29C229.309 94.2044 229.7 95.0682 230.362 95.7002C231.024 96.3323 231.905 96.6834 232.82 96.68Z" fill="#E6637B"/>
<path d="M254.77 46.5C254.77 46.5 254.89 46.6 255.08 46.82C255.353 47.1382 255.606 47.4721 255.84 47.82C256.68 49.1271 257.352 50.5348 257.84 52.01C258.565 54.204 259.048 56.4709 259.28 58.77C259.58 61.36 259.71 64.21 259.83 67.2C260.06 73.2 259.99 78.6 259.83 82.52C259.75 84.52 259.65 86.06 259.56 87.15C259.536 87.7204 259.473 88.2884 259.37 88.85C259.319 88.2811 259.319 87.7089 259.37 87.14C259.37 85.95 259.43 84.39 259.46 82.51C259.52 78.59 259.53 73.18 259.3 67.22C259.18 64.22 259.07 61.39 258.8 58.83C258.594 56.5617 258.159 54.3202 257.5 52.14C256.832 50.1524 255.914 48.2573 254.77 46.5Z" fill="#263238"/>
<path d="M230 75C229.745 73.9577 229.598 72.8922 229.56 71.82C229.39 69.82 229.25 67.1 229.26 64.08C229.27 61.06 229.44 58.31 229.63 56.33C229.672 55.2595 229.83 54.1966 230.1 53.16C230.157 54.2269 230.134 55.2966 230.03 56.36C229.95 58.36 229.85 61.06 229.83 64.08C229.81 67.1 229.89 69.82 229.96 71.79C230.053 72.8575 230.066 73.9305 230 75Z" fill="#263238"/>
<path d="M233.56 97.0699C234.835 96.9742 236.115 96.9742 237.39 97.0699C239.75 97.0699 243.01 97.2099 246.62 97.3499L251.69 97.5699C253.052 97.6932 254.423 97.6361 255.77 97.3999C256.662 97.2225 257.498 96.8351 258.21 96.2699C258.71 95.8599 258.9 95.5399 258.94 95.5699C258.98 95.5999 258.84 95.9399 258.36 96.4299C257.663 97.0979 256.8 97.5674 255.86 97.7899C254.485 98.0932 253.074 98.1943 251.67 98.0899L246.59 97.9099C242.99 97.7699 239.73 97.6099 237.37 97.4699C236.092 97.4357 234.818 97.302 233.56 97.0699Z" fill="#263238"/>
<path d="M234.18 87.02H253.26V80.65H234.18V87.02Z" fill="white"/>
<path d="M237.34 83.77C239.394 83.4874 241.469 83.3937 243.54 83.49C245.611 83.3941 247.686 83.4878 249.74 83.77C247.686 84.0521 245.611 84.1459 243.54 84.05C241.469 84.1463 239.394 84.0525 237.34 83.77Z" fill="#263238"/>
<path d="M233.12 72.5599C233.472 72.6733 233.808 72.8312 234.12 73.0299C234.72 73.3599 235.57 73.8699 236.62 74.5099C238.7 75.7999 241.52 77.6699 244.53 79.8799C247.54 82.0899 250.17 84.2399 252.02 85.8799C252.95 86.6799 253.68 87.3499 254.18 87.8199C254.456 88.0474 254.701 88.3096 254.91 88.5999C253.813 87.8602 252.761 87.0554 251.76 86.1899C249.85 84.6699 247.2 82.5899 244.2 80.3799C241.2 78.1699 238.42 76.2599 236.4 74.8899C235.26 74.1817 234.164 73.4036 233.12 72.5599Z" fill="white"/>
<path d="M241.43 73.72C243.167 74.5577 244.818 75.5624 246.36 76.72C248.017 77.7217 249.571 78.884 251 80.19C249.263 79.3523 247.612 78.3475 246.07 77.19C244.413 76.1883 242.859 75.026 241.43 73.72Z" fill="white"/>
<path d="M242.46 47.1C240.799 43.7634 239.634 40.2027 239 36.53L242.26 36.15C242.26 36.15 244.31 43.88 245.89 46.04L242.46 47.1Z" fill="#E0E0E0"/>
<path d="M237.16 434.1L242.16 475.94L230.85 476.05L214.78 434.14L237.16 434.1Z" fill="#263238"/>
<path d="M70.29 230.66C70.2522 223.891 72.7802 217.359 77.365 212.379C81.9498 207.399 88.251 204.341 95 203.82C124.28 201.51 171.88 198.6 195.56 201.76C199.883 202.331 203.924 204.221 207.134 207.172C210.345 210.122 212.567 213.991 213.5 218.25L228.25 286L290.56 286.82C290.56 286.82 309.95 286.38 315.39 296.71C320.97 307.31 320.12 325.51 318.96 335.71C318.19 342.49 308.5 434.71 308.5 434.71L71.9 434.3L70.29 230.66Z" fill="#455A64"/>
<path d="M186.51 434.46L170.66 476.46L159.35 476.35L164.35 434.35L186.51 434.46Z" fill="#263238"/>
<path d="M306.17 434.26L309.85 474.81L298.54 474.7L284.38 434.21L306.17 434.26Z" fill="#263238"/>
<path d="M97.66 434.14L81.6 476.28L70.29 476.17L75.29 434.1L97.66 434.14Z" fill="#263238"/>
<path d="M235.6 277.9C232.093 277.897 228.595 277.538 225.16 276.83L226.02 272.93C226.18 272.93 241.85 276.33 248.76 270.34C251.18 268.24 252.21 265.22 251.9 261.11C251.14 251.06 246.41 244.49 241.84 238.11C237.27 231.73 233.09 225.95 233.09 217.54C233.09 200.4 240.72 196.01 253.26 190.83C254.559 190.247 255.677 189.325 256.495 188.159C257.314 186.994 257.803 185.63 257.91 184.21C258.16 180.58 255.75 177.09 251.11 174.38C249.41 173.38 247.84 172.55 246.45 171.82C236.45 166.53 233.62 163.98 235.01 141.13C235.83 127.57 238.06 121.07 239.85 115.84C241.52 111 242.72 107.5 242.01 100.1L246.01 99.72C246.8 107.98 245.41 112.02 243.66 117.14C241.91 122.26 239.81 128.35 239.02 141.37C237.73 162.67 240.02 163.86 248.34 168.29C249.77 169.04 251.34 169.89 253.15 170.92C261.27 175.67 262.15 181.46 261.92 184.49C261.757 186.646 261.009 188.717 259.756 190.479C258.503 192.241 256.793 193.628 254.81 194.49C243.19 199.29 237.12 202.49 237.11 217.49C237.11 224.61 240.82 229.76 245.11 235.72C249.78 242.21 255.11 249.56 255.92 260.72C256.32 266.1 254.81 270.33 251.4 273.27C247.22 277 241 277.9 235.6 277.9Z" fill="#E0E0E0"/>
<path d="M236 276.53C232.772 276.513 229.553 276.178 226.39 275.53L226.61 274.53C226.77 274.53 242.38 277.95 249.68 271.62C252.48 269.2 253.73 265.62 253.37 260.96C252.58 250.49 247.73 243.74 243.03 237.22C238.68 231.22 234.57 225.46 234.57 217.53C234.57 200.99 241.89 197.14 253.81 192.21C255.371 191.523 256.716 190.424 257.699 189.03C258.682 187.637 259.267 186.001 259.39 184.3C259.68 180.07 257 176.08 251.84 173.07C250.12 172.07 248.53 171.23 247.14 170.49C238.14 165.72 235.14 164.12 236.48 141.21C237.29 127.85 239.48 121.46 241.25 116.32C243.02 111.18 244.25 107.67 243.48 99.95L244.48 99.85C245.25 107.79 243.91 111.7 242.21 116.64C240.51 121.58 238.29 128.05 237.49 141.27C236.14 163.53 238.8 164.94 247.61 169.6C249.02 170.35 250.61 171.19 252.36 172.21C259.78 176.54 260.58 181.69 260.36 184.37C260.224 186.255 259.575 188.068 258.484 189.611C257.393 191.155 255.902 192.372 254.17 193.13C242.28 198.04 235.55 201.6 235.54 217.53C235.54 225.14 239.54 230.72 243.82 236.64C248.37 242.96 253.53 250.13 254.34 260.88C254.72 265.88 253.34 269.74 250.34 272.38C246.58 275.69 240.9 276.53 236 276.53Z" fill="#E6637B"/>
<path d="M192.72 368.77C192.72 368.89 199.37 366.77 207.47 364.08C215.57 361.39 222.12 359.08 222.08 358.96C222.04 358.84 215.44 360.96 207.33 363.64C199.22 366.32 192.68 368.65 192.72 368.77Z" fill="#455A64"/>
<path d="M164.34 328.43L189.22 325.05C189.22 325.05 236.95 317.73 263.22 314.48C268.572 313.807 273.988 313.807 279.34 314.48C288.98 316.41 295.11 332.79 296.39 347.41C297 354.75 298 448 298 448L277 447.94L266.66 392L263.2 356.11L223 366.35L170.39 366.17C163.91 361.08 164.34 328.43 164.34 328.43Z" fill="#FFBF9D"/>
<path d="M263.22 341.79C263.172 342.239 263.172 342.691 263.22 343.14C263.22 344 263.38 345.25 263.55 346.79C263.88 349.86 264.44 354.1 265.11 358.79C265.78 363.48 266.45 367.69 266.96 370.73C267.22 372.26 267.44 373.49 267.61 374.34C267.674 374.785 267.778 375.224 267.92 375.65C267.914 375.201 267.87 374.752 267.79 374.31C267.66 373.37 267.49 372.15 267.29 370.68C266.84 367.54 266.24 363.35 265.58 358.68C264.92 354.01 264.33 349.87 263.88 346.73C263.69 345.26 263.53 344.04 263.4 343.1C263.379 342.659 263.319 342.221 263.22 341.79Z" fill="#455A64"/>
<path d="M257 345.71C257.043 346.319 257.206 346.914 257.48 347.46C258.035 348.828 258.801 350.1 259.75 351.23C260.691 352.365 261.809 353.34 263.06 354.12C263.557 354.479 264.117 354.743 264.71 354.9C261.215 352.75 258.51 349.526 257 345.71Z" fill="#455A64"/>
<path d="M274.25 431.92L277.47 450.74L276.09 459.12L275.66 468.65C275.569 470.048 276.036 471.425 276.958 472.48C277.88 473.535 279.182 474.182 280.58 474.28L330.82 475.71C331.168 475.724 331.513 475.636 331.812 475.459C332.112 475.282 332.354 475.022 332.51 474.71C333.24 473.18 334.02 470.34 331.06 468.53C327.56 466.35 298 448 298 448L297.58 430.76L274.25 431.92Z" fill="#FFBF9D"/>
<path d="M299.13 476.28C299.13 476.28 298.25 461.62 308.23 455.05L309.06 454.72C309.06 454.72 331.44 467.72 333.06 469.72C335.88 473.17 333.79 476.01 333.79 476.01L299.13 476.28Z" fill="#E6637B"/>
<path d="M300.45 473.18H272.24V475.15H300.45V473.18Z" fill="#E6637B"/>
<path d="M204.51 282.58C204.51 282.58 208.11 301 215.58 304C223.05 307 267.36 306.37 267.36 306.37L269.28 293.29L228.4 283.53L224.19 264.66L202.65 266.15L204.51 282.58Z" fill="#FFBF9D"/>
<path d="M260.39 292.89C263.334 291.851 266.377 291.114 269.47 290.69C274.17 290.11 283.54 291.04 284.2 291.19C284.86 291.34 293.59 296.53 293.59 296.53L299.27 303.81C299.27 303.81 298.27 306.5 295.89 303.81C294.552 302.268 293.112 300.818 291.58 299.47L285.28 297.01L290.69 301.34L295.52 311.73C295.52 311.73 293.63 313.82 291.83 311.73C290.03 309.64 286.83 305.83 286.83 305.83L289.56 313.11C289.56 313.11 288.36 315.01 286.83 313.58C285.961 312.771 285.143 311.91 284.38 311C284.38 311 283.56 313.33 282.1 311.45C281.162 310.263 280.095 309.183 278.92 308.23L272.92 306.06C272.92 306.06 266.49 306.87 263.59 305.84C260.69 304.81 260.39 292.89 260.39 292.89Z" fill="#FFBF9D"/>
<path d="M222.3 290.28C222.676 288.666 223.491 287.188 224.653 286.007C225.816 284.827 227.282 283.99 228.89 283.59C225.992 285 223.666 287.362 222.3 290.28Z" fill="#FF9A6C"/>
<path d="M264.67 296.82C265.388 298.143 266.457 299.242 267.759 299.997C269.061 300.752 270.545 301.134 272.05 301.1C273.71 301.04 275.37 300.47 277 300.81C279.26 301.28 280.79 303.36 282.82 304.46C283.75 304.96 285.12 305.14 285.69 304.24C285.828 303.922 285.893 303.577 285.879 303.231C285.865 302.885 285.773 302.546 285.61 302.24C284.824 300.255 283.61 298.468 282.054 297.005C280.499 295.543 278.64 294.442 276.61 293.78" fill="#FFBF9D"/>
<path d="M276.64 293.74C276.64 293.74 276.78 293.74 277.03 293.82C277.394 293.922 277.751 294.045 278.1 294.19C279.399 294.732 280.606 295.471 281.68 296.38C283.291 297.725 284.591 299.403 285.49 301.3C285.768 301.852 285.976 302.437 286.11 303.04C286.168 303.373 286.147 303.716 286.05 304.04C285.919 304.395 285.663 304.691 285.33 304.87C285 305.011 284.644 305.084 284.285 305.084C283.926 305.084 283.57 305.011 283.24 304.87C282.603 304.621 282.004 304.285 281.46 303.87C280.474 303.032 279.432 302.264 278.34 301.57C277.318 301.022 276.146 300.822 275 301C273.905 301.178 272.799 301.285 271.69 301.32C270.703 301.285 269.731 301.072 268.82 300.69C267.504 300.154 266.355 299.277 265.49 298.15C265.25 297.838 265.043 297.503 264.87 297.15C264.75 296.91 264.7 296.79 264.72 296.78C264.74 296.77 265.01 297.24 265.64 297.98C266.539 299.017 267.679 299.817 268.96 300.31C269.834 300.65 270.762 300.829 271.7 300.84C272.79 300.795 273.876 300.675 274.95 300.48C275.561 300.405 276.179 300.405 276.79 300.48C277.435 300.584 278.057 300.797 278.63 301.11C279.75 301.806 280.816 302.585 281.82 303.44C282.319 303.846 282.871 304.183 283.46 304.44C283.726 304.551 284.012 304.608 284.3 304.608C284.588 304.608 284.874 304.551 285.14 304.44C285.363 304.305 285.535 304.101 285.631 303.859C285.727 303.617 285.74 303.351 285.67 303.1C285.55 302.539 285.362 301.995 285.11 301.48C284.252 299.633 283.02 297.985 281.49 296.64C280.036 295.424 278.399 294.445 276.64 293.74Z" fill="#FF9A6C"/>
<path d="M217.37 276.21L225.88 272.2L227.06 277.5L218.76 281.53L217.37 276.21Z" fill="#E0E0E0"/>
<path d="M137.5 328.22L157.06 322C157.06 322 207.24 316.93 233.49 313.68C238.235 313.032 243.053 313.15 247.76 314.03C257.4 315.96 260.64 327.54 262.3 334.73C263.96 341.92 266.71 449.78 266.71 449.78L244.22 451.28L232.79 407.95C229.879 398.031 228.032 387.83 227.28 377.52L226.05 360.44L192.47 366.96L144.94 366.6C138.44 361.48 137.5 328.22 137.5 328.22Z" fill="#FFBF9D"/>
<path d="M223.68 343.49C223.645 343.936 223.645 344.384 223.68 344.83C223.74 345.7 223.85 346.95 224.01 348.49C224.35 351.56 224.9 355.8 225.57 360.49C226.24 365.18 226.91 369.38 227.43 372.43C227.68 373.96 227.91 375.19 228.07 376.04C228.136 376.485 228.239 376.923 228.38 377.35C228.387 376.9 228.343 376.45 228.25 376.01C228.12 375.07 227.96 373.85 227.76 372.38C227.31 369.24 226.71 365.05 226.04 360.38C225.37 355.71 224.79 351.57 224.35 348.43C224.15 346.96 223.99 345.74 223.87 344.8C223.843 344.359 223.78 343.921 223.68 343.49Z" fill="#455A64"/>
<path d="M217.44 347.41C217.495 348.017 217.658 348.61 217.92 349.16C219.038 351.912 220.993 354.242 223.51 355.82C224.004 356.178 224.56 356.442 225.15 356.6C221.661 354.442 218.958 351.221 217.44 347.41Z" fill="#455A64"/>
<path d="M240.08 431.44L244.45 452.32L243.78 462.64L243.34 468.64C243.249 470.038 243.716 471.415 244.638 472.47C245.56 473.525 246.862 474.172 248.26 474.27L298.38 475.34C298.826 475.266 299.251 475.096 299.625 474.84C299.998 474.584 300.31 474.25 300.54 473.86C301.27 472.32 301.69 470.3 298.74 468.49C295.24 466.34 266.74 449.73 266.74 449.73L265.8 430.6L240.08 431.44Z" fill="#FFBF9D"/>
<path d="M266.71 476.05C266.71 476.05 265.32 461.32 275.3 454.75L276.13 454.41C276.13 454.41 298.52 467.41 300.13 469.41C300.939 470.335 301.46 471.476 301.629 472.693C301.798 473.91 301.607 475.15 301.08 476.26L266.71 476.05Z" fill="#E6637B"/>
<path d="M267.52 472.88H239.31V476.28H267.52V472.88Z" fill="#E6637B"/>
<path d="M300.85 475.72C300.85 475.72 300.94 475.23 301.04 474.37C301.188 473.162 300.997 471.936 300.49 470.83C300.129 470.081 299.599 469.427 298.94 468.92C298.23 468.38 297.37 467.87 296.5 467.31L290.77 463.74L280.37 457.23L277.24 455.23C276.841 455.006 276.469 454.738 276.13 454.43C276.552 454.601 276.957 454.812 277.34 455.06L280.56 456.93C283.26 458.54 286.97 460.79 291.04 463.32C293.04 464.58 295.04 465.8 296.76 466.93C297.63 467.5 298.46 468.02 299.21 468.61C299.901 469.171 300.456 469.882 300.83 470.69C301.332 471.866 301.474 473.163 301.24 474.42C301.183 474.759 301.099 475.094 300.99 475.42C300.92 475.61 300.87 475.72 300.85 475.72Z" fill="#263238"/>
<path d="M219.21 314.08L206.37 295.48C208.96 281.48 211.67 275.82 213.09 268.87C216.92 249.45 209.09 227.96 209.09 227.96L205.23 209.77L188.98 204.77L166.59 204.25L145.11 208.09L138.58 285.48C134.35 309.87 137.66 324.48 137.49 328.17L219.21 314.08Z" fill="#E6637B"/>
<path d="M142.93 366.83L222.05 366.89L221.57 376.75C221.57 376.75 232.45 383.75 249.91 381.5C262.78 379.87 279.76 374.66 287.81 372.02C290.841 371.033 294.119 371.111 297.1 372.24L301.83 374.03L296.14 335.68C296.14 335.68 291.77 311.16 271.14 311.97C250.51 312.78 250 314.54 250 314.54C246.102 312.314 241.667 311.201 237.18 311.32C229.69 311.52 137.3 317.84 137.3 317.84C136.88 337.52 136.77 354.77 142.93 366.83Z" fill="#E6637B"/>
<path d="M221.08 313.72C221.08 313.86 211.54 315.82 199.72 318.09C187.9 320.36 178.3 322.09 178.27 321.96C178.24 321.83 187.8 319.86 199.63 317.58C211.46 315.3 221.05 313.58 221.08 313.72Z" fill="#263238"/>
<path d="M269.15 368.83C269.074 368.641 269.024 368.442 269 368.24C268.92 367.79 268.81 367.24 268.67 366.51C268.4 364.95 268.02 362.79 267.56 360.16C266.65 354.73 265.42 347.34 264.07 339.16C263.535 335.303 262.658 331.501 261.45 327.8C260.441 324.793 258.877 322.001 256.84 319.57C255.465 317.936 253.809 316.561 251.95 315.51C250.62 314.78 249.81 314.51 249.83 314.51C250.033 314.54 250.232 314.597 250.42 314.68C250.979 314.863 251.521 315.094 252.04 315.37C253.97 316.371 255.694 317.728 257.12 319.37C259.23 321.809 260.853 324.63 261.9 327.68C263.148 331.398 264.045 335.225 264.58 339.11C265.88 347.29 267.05 354.69 267.92 360.11C268.31 362.76 268.64 364.92 268.87 366.49C268.97 367.2 269.04 367.78 269.11 368.23C269.145 368.428 269.158 368.629 269.15 368.83Z" fill="#263238"/>
<path d="M205.24 209.77C205.24 209.77 213.15 210.68 218.76 221.7C224.37 232.72 232.08 264 232.08 264L203.69 266.28L205.24 209.77Z" fill="#E6637B"/>
<path d="M211.11 273.53C211.71 271.492 212.181 269.418 212.52 267.32C212.82 265.036 212.947 262.733 212.9 260.43C212.826 257.607 212.602 254.789 212.23 251.99C211.42 245.99 210.23 240.69 209.38 236.83C208.97 234.96 208.63 233.42 208.38 232.25C208.23 231.697 208.129 231.131 208.08 230.56C208.285 231.093 208.448 231.642 208.57 232.2C208.86 233.27 209.26 234.82 209.73 236.74C211.001 241.743 212.003 246.81 212.73 251.92C213.105 254.739 213.315 257.577 213.36 260.42C213.395 262.763 213.228 265.105 212.86 267.42C212.78 267.9 212.7 268.37 212.63 268.81C212.56 269.25 212.41 269.65 212.32 270.04C212.171 270.699 211.977 271.347 211.74 271.98C211.569 272.512 211.359 273.03 211.11 273.53Z" fill="#263238"/>
<path d="M217.33 357.31C219.478 360.863 221.318 364.593 222.83 368.46C221.686 366.723 220.682 364.897 219.83 363C218.839 361.177 218.003 359.273 217.33 357.31Z" fill="#263238"/>
<path opacity="0.3" d="M203.69 366.83C203.69 366.83 202.44 330.67 198.58 319.15C194.72 307.63 175.23 300.78 175.23 300.78L167.05 304.87L188.11 366.75L203.69 366.83Z" fill="black"/>
<path opacity="0.3" d="M252.72 315.83C255.273 315.827 257.77 316.573 259.903 317.976C262.036 319.378 263.711 321.375 264.72 323.72C268.39 331.96 277.44 375.25 277.44 375.25L269.33 377.5L263.51 335.55C263.25 331.677 262.15 327.907 260.287 324.502C258.424 321.096 255.842 318.137 252.72 315.83Z" fill="black"/>
<path opacity="0.3" d="M143.34 281.53L146.47 269.05H150.72L155.25 239.82L144.8 260.68L140.2 281.53H143.34Z" fill="black"/>
<path d="M146.11 208C146.11 208 132.11 209.09 126.19 224.44C121.19 237.5 112.35 257.05 112.35 257.05L147.59 266.39C147.59 266.39 154.94 242.73 157.59 228.68C160 216.44 147.43 209.29 146.11 208Z" fill="#E6637B"/>
<path d="M118.6 258.67C118.6 258.67 112.16 278.53 112.6 289.6C112.6 289.71 112.6 289.82 112.6 289.93C112.793 293.842 114.487 297.529 117.329 300.224C120.171 302.919 123.943 304.415 127.86 304.4H188.94L186.24 289.66L140.86 280.53L144.08 265.41L118.6 258.67Z" fill="#FFBF9D"/>
<path d="M133.34 285.8C134.072 284.275 135.201 282.974 136.609 282.035C138.016 281.095 139.65 280.551 141.34 280.46C139.794 280.962 138.309 281.633 136.91 282.46C135.599 283.437 134.402 284.557 133.34 285.8Z" fill="#FF9A6C"/>
<path d="M186.21 289.66C189.911 290.403 193.526 291.523 197 293C202.25 295.32 211.42 302.14 212 302.7C212.58 303.26 218.44 314.12 218.44 314.12L219.81 325.23C219.81 325.23 215.63 326.91 214.81 322.59C213.99 318.27 213.32 315.65 213.32 315.65L209.48 309.4L211.48 316.18L211.05 329C211.05 329 207.78 330 207.2 326.7C206.62 323.4 205.67 319.59 205.67 319.59L203.97 328.86C203.97 328.86 201.54 330.09 200.84 327.65C200.424 326.264 200.09 324.855 199.84 323.43C199.84 323.43 197.54 325.35 197.19 322.48C196.952 320.661 196.516 318.874 195.89 317.15L190.96 311.15C190.96 311.15 183.76 307.99 181.38 305.15C179 302.31 186.21 289.66 186.21 289.66Z" fill="#FFBF9D"/>
<path d="M194.73 307.64C195.509 308.103 196.228 308.661 196.87 309.3C197.607 309.956 198.298 310.661 198.94 311.41C199.758 312.334 200.384 313.411 200.78 314.58C201.282 316.738 201.35 318.975 200.98 321.16C200.859 321.82 200.664 322.464 200.4 323.08C200.21 323.51 200.06 323.73 200.03 323.72C200 323.71 200.4 322.72 200.61 321.11C200.863 318.98 200.751 316.823 200.28 314.73C199.899 313.634 199.319 312.617 198.57 311.73C197.89 310.89 197.2 310.18 196.62 309.59C195.947 308.983 195.315 308.332 194.73 307.64Z" fill="#FF9A6C"/>
<path d="M201.16 306.13C201.726 306.611 202.221 307.17 202.63 307.79C203.714 309.217 204.605 310.78 205.28 312.44C205.649 313.361 205.914 314.32 206.07 315.3C206.196 316.104 206.226 316.919 206.16 317.73C206.133 318.477 205.949 319.209 205.62 319.88C205.52 319.88 205.75 319.04 205.79 317.71C205.803 316.929 205.74 316.149 205.6 315.38C205.415 314.441 205.148 313.521 204.8 312.63C204.128 311.01 203.301 309.46 202.33 308C201.884 307.413 201.493 306.787 201.16 306.13Z" fill="#FF9A6C"/>
<path d="M112.35 257C112.589 257.033 112.826 257.08 113.06 257.14L115.06 257.62L122.61 259.47L148.52 266L148.21 266.19C149.02 262.19 150.11 258.07 151.21 253.76C152.89 247.06 154.58 240.69 155.92 234.86C156.549 232.115 156.864 229.307 156.86 226.49C156.847 224.038 156.414 221.606 155.58 219.3C154.339 215.945 151.918 213.158 148.77 211.46C147.598 210.884 146.348 210.483 145.06 210.27H145.32C145.49 210.27 145.75 210.27 146.08 210.36C147.043 210.538 147.978 210.844 148.86 211.27C152.112 212.931 154.629 215.744 155.92 219.16C156.805 221.497 157.269 223.972 157.29 226.47C157.313 229.325 157.011 232.173 156.39 234.96C155.07 240.81 153.39 247.17 151.71 253.88C150.64 258.18 149.54 262.36 148.71 266.28V266.54L148.45 266.47L122.62 259.76L115.11 257.76L113.11 257.2C112.851 257.157 112.597 257.09 112.35 257Z" fill="#263238"/>
<path d="M159.11 178.55C150.06 174.81 142.43 179.77 136.43 187.01C144.93 190.44 155.77 189.31 159.11 178.55Z" fill="#E6637B"/>
<path d="M160.22 179C150.97 182.21 148.56 191 148.86 200.38C157.5 197.31 164.86 189.27 160.22 179Z" fill="#E6637B"/>
<path d="M207.64 161.47C207.64 161.47 211.79 136.05 187.83 130.29C175.36 127.29 166.12 131.56 160.56 137.71C154.56 144.32 152.23 152.12 152.23 161.16C152.266 165.896 153.235 170.578 155.083 174.938C156.931 179.298 159.622 183.251 163 186.57L207.64 161.47Z" fill="#E6637B"/>
<path d="M191.6 209.34C191.92 204.16 192.03 202.04 192.03 202.09C192.03 202.14 203.93 199.79 206.91 185.64C208.39 178.64 207.74 167.99 207.61 158.45C207.5 149.87 200.14 138.22 189.54 138.23L184.83 137.71L166.83 144.96C165.573 145.025 164.387 145.561 163.509 146.462C162.63 147.363 162.124 148.562 162.09 149.82L162.24 206.39L167.92 210.26C175.56 216.68 188.83 215.7 191.6 209.34Z" fill="#FFBF9D"/>
<path d="M201.57 168.77C201.549 169.247 201.344 169.698 200.996 170.027C200.649 170.355 200.188 170.536 199.71 170.53C199.477 170.537 199.245 170.497 199.027 170.412C198.81 170.328 198.611 170.201 198.444 170.039C198.276 169.877 198.142 169.683 198.051 169.468C197.959 169.254 197.911 169.023 197.91 168.79C197.928 168.313 198.132 167.863 198.477 167.534C198.823 167.205 199.283 167.024 199.76 167.03C199.994 167.023 200.226 167.063 200.444 167.148C200.662 167.232 200.861 167.359 201.03 167.521C201.198 167.682 201.333 167.876 201.426 168.091C201.518 168.305 201.567 168.536 201.57 168.77Z" fill="#263238"/>
<path d="M183 168.4C182.982 168.877 182.778 169.327 182.433 169.656C182.087 169.985 181.627 170.166 181.15 170.16C180.916 170.165 180.683 170.124 180.465 170.039C180.247 169.953 180.048 169.826 179.88 169.663C179.711 169.5 179.577 169.306 179.484 169.091C179.392 168.875 179.343 168.644 179.34 168.41C179.363 167.934 179.57 167.486 179.917 167.16C180.264 166.833 180.724 166.654 181.2 166.66C181.433 166.652 181.666 166.691 181.884 166.775C182.102 166.859 182.301 166.986 182.469 167.148C182.637 167.31 182.771 167.505 182.862 167.72C182.953 167.935 183 168.166 183 168.4Z" fill="#263238"/>
<path d="M204.73 163.27C204.49 163.5 203.16 162.4 201.19 162.27C199.22 162.14 197.73 163.09 197.53 162.83C197.33 162.57 197.68 162.3 198.33 161.83C199.211 161.28 200.243 161.017 201.28 161.08C202.302 161.126 203.284 161.497 204.08 162.14C204.67 162.73 204.85 163.17 204.73 163.27Z" fill="#263238"/>
<path d="M184.79 163C184.56 163.25 183.16 162.24 181.19 162.28C179.22 162.32 177.79 163.28 177.57 163.1C177.35 162.92 177.69 162.56 178.31 162.1C179.147 161.476 180.156 161.127 181.2 161.1C182.224 161.081 183.229 161.385 184.07 161.97C184.68 162.49 184.9 162.91 184.79 163Z" fill="#263238"/>
<path d="M191.78 178.67C192.836 178.401 193.921 178.263 195.01 178.26C195.51 178.26 196.01 178.15 196.09 177.82C196.164 177.302 196.073 176.774 195.83 176.31L194.54 172.41C192.75 166.86 191.48 162.3 191.7 162.23C191.92 162.16 193.56 166.6 195.35 172.16C195.78 173.52 196.19 174.83 196.58 176.08C196.872 176.706 196.929 177.416 196.74 178.08C196.66 178.255 196.541 178.409 196.392 178.531C196.243 178.652 196.068 178.737 195.88 178.78C195.598 178.84 195.308 178.863 195.02 178.85C193.937 178.935 192.847 178.874 191.78 178.67Z" fill="#263238"/>
<path d="M192 202C185.276 201.787 178.742 199.71 173.13 196C173.13 196 177.43 206.11 191.78 205.49L192 202Z" fill="#FF9A6C"/>
<path d="M190.71 183.38C190.36 182.889 189.891 182.495 189.347 182.236C188.803 181.977 188.202 181.861 187.6 181.9C187.163 181.918 186.734 182.023 186.339 182.21C185.944 182.398 185.59 182.663 185.3 182.99C185.015 183.3 184.836 183.693 184.788 184.111C184.739 184.53 184.824 184.953 185.03 185.32C185.325 185.692 185.725 185.966 186.178 186.107C186.631 186.248 187.116 186.249 187.57 186.11C188.52 185.828 189.404 185.359 190.17 184.73C190.397 184.581 190.596 184.395 190.76 184.18C190.83 184.069 190.868 183.941 190.868 183.81C190.868 183.679 190.83 183.551 190.76 183.44" fill="#FF9A6C"/>
<path d="M185.92 179.74C186.24 179.74 186.14 181.88 187.92 183.49C189.7 185.1 191.92 184.97 191.92 185.27C191.92 185.41 191.39 185.66 190.43 185.64C189.177 185.595 187.981 185.11 187.05 184.27C186.156 183.465 185.614 182.341 185.54 181.14C185.51 180.24 185.77 179.73 185.92 179.74Z" fill="#263238"/>
<path d="M185.51 157.77C185.22 158.25 183.65 157.6 181.66 157.4C179.67 157.2 177.97 157.4 177.83 156.91C177.77 156.66 178.16 156.23 178.91 155.91C179.852 155.495 180.888 155.34 181.91 155.46C182.932 155.558 183.906 155.943 184.72 156.57C185.38 157 185.64 157.54 185.51 157.77Z" fill="#263238"/>
<path d="M204.45 158.07C204.08 158.5 202.75 157.97 201.12 157.86C199.49 157.75 198.12 158.01 197.8 157.53C197.67 157.3 197.91 156.86 198.54 156.47C199.374 156.002 200.328 155.793 201.281 155.869C202.233 155.946 203.142 156.305 203.89 156.9C204.45 157.39 204.61 157.86 204.45 158.07Z" fill="#263238"/>
<path d="M163.56 171.48C163.56 171.48 165.74 156.48 175.11 146.86C182.37 139.37 194.21 137.93 202.37 146.64C203.74 148.1 205.64 149.32 207.64 155.85C207.64 155.85 206.28 135.59 188.23 133.36C171.23 131.26 162.48 142.57 159.7 150.78C157 158.78 157.7 171.48 157.7 171.48H163.56Z" fill="#E6637B"/>
<path d="M165.12 170.16C165.12 169.1 163.24 168.86 162.2 168.64C159.42 168.06 154.36 168.03 153.96 175.14C153.41 184.86 163.28 183.41 163.31 183.14C163.34 182.87 165 173.83 165.12 170.16Z" fill="#FFBF9D"/>
<path d="M160.55 179.28C160.55 179.28 160.38 179.39 160.08 179.51C159.672 179.673 159.218 179.673 158.81 179.51C157.81 179.08 157.04 177.4 157.09 175.64C157.112 174.808 157.32 173.991 157.7 173.25C157.811 172.953 157.992 172.686 158.226 172.472C158.461 172.258 158.743 172.103 159.05 172.02C159.251 171.972 159.463 171.998 159.647 172.093C159.831 172.189 159.974 172.347 160.05 172.54C160.17 172.82 160.05 173.01 160.14 173.03C160.23 173.05 160.36 172.88 160.31 172.47C160.268 172.226 160.145 172.004 159.96 171.84C159.704 171.623 159.374 171.516 159.04 171.54C158.635 171.595 158.251 171.754 157.925 172.001C157.6 172.248 157.343 172.575 157.18 172.95C156.719 173.766 156.465 174.683 156.44 175.62C156.44 177.62 157.29 179.47 158.67 179.96C158.928 180.051 159.203 180.082 159.474 180.053C159.746 180.024 160.008 179.934 160.24 179.79C160.52 179.52 160.58 179.3 160.55 179.28Z" fill="#FF9A6C"/>
<path d="M176.53 139.26C176.59 139.35 174.94 140.42 172.62 142.56C171.264 143.817 170.001 145.171 168.84 146.61C167.438 148.383 166.181 150.266 165.08 152.24C164.011 154.23 163.104 156.303 162.37 158.44C161.781 160.19 161.323 161.982 161 163.8C160.44 166.91 160.43 168.88 160.32 168.87C160.275 168.411 160.275 167.949 160.32 167.49C160.32 166.949 160.35 166.408 160.41 165.87C160.457 165.156 160.541 164.445 160.66 163.74C160.948 161.892 161.379 160.07 161.95 158.29C163.356 153.91 165.582 149.838 168.51 146.29C169.702 144.855 171.006 143.518 172.41 142.29C172.99 141.74 173.58 141.29 174.07 140.93C174.489 140.57 174.93 140.236 175.39 139.93C175.748 139.672 176.13 139.447 176.53 139.26Z" fill="#263238"/>
<path d="M200.58 139.12C199.143 138.118 197.643 137.21 196.09 136.4C192.295 134.502 188.062 133.65 183.828 133.931C179.594 134.213 175.511 135.617 172 138C170.568 139.009 169.199 140.104 167.9 141.28C168.168 140.886 168.48 140.524 168.83 140.2C169.751 139.273 170.755 138.433 171.83 137.69C175.355 135.187 179.505 133.712 183.818 133.43C188.132 133.147 192.439 134.068 196.26 136.09C197.413 136.687 198.508 137.39 199.53 138.19C199.914 138.459 200.267 138.771 200.58 139.12Z" fill="#263238"/>
<path d="M78.81 226.28C78.81 226.28 85 223.28 86.47 231.67C87.94 240.06 98.11 301.67 98.11 301.67L161.3 301.17C161.3 301.17 183.39 298.83 192.45 321.64C198.79 337.59 196.52 393.8 196.52 393.8L195.32 433.09H81.06C81.06 433.09 77.53 350.73 76.95 314.09C76.37 277.45 75.1 237.54 78.81 226.28Z" fill="#455A64"/>
<path d="M197.15 434.41C197 434.41 196.89 416.19 196.89 393.73C196.89 371.27 197 353 197.15 353C197.3 353 197.41 371.21 197.41 393.69C197.41 416.17 197.29 434.41 197.15 434.41Z" fill="#263238"/>
<path d="M158 434.41C157.85 434.41 157.74 407.16 157.74 373.56C157.74 339.96 157.85 312.7 158 312.7C158.15 312.7 158.26 339.94 158.26 373.56C158.26 407.18 158.14 434.41 158 434.41Z" fill="#263238"/>
</svg>
