<svg width="32" height="32" viewBox="0 0 32 32" fill="none" xmlns="http://www.w3.org/2000/svg">
<path d="M29.1172 31.8312L18.1635 20.8756C15.8133 22.5465 12.9211 23.2734 10.0601 22.9124C7.19916 22.5513 4.57825 21.1286 2.71684 18.9262C0.855419 16.7238 -0.11065 13.9025 0.010094 11.0213C0.130838 8.14021 1.32958 5.4096 3.36875 3.37067C5.40736 1.33085 8.13797 0.131443 11.0193 0.0101794C13.9006 -0.111084 16.7224 0.854652 18.9252 2.71596C21.128 4.57727 22.551 7.19828 22.9123 10.0594C23.2735 12.9206 22.5466 15.8131 20.8756 18.1635L31.8293 29.1192L29.1192 31.8293L29.1172 31.8312ZM11.4992 3.8345C9.73603 3.83409 8.02656 4.44146 6.65886 5.55426C5.29116 6.66707 4.34884 8.21729 3.99066 9.94375C3.63247 11.6702 3.88033 13.4674 4.69246 15.0324C5.50459 16.5975 6.83135 17.8347 8.44921 18.5358C10.0671 19.2368 11.8771 19.3588 13.5744 18.8811C15.2717 18.4035 16.7525 17.3554 17.7672 15.9134C18.782 14.4715 19.2687 12.7238 19.1454 10.9649C19.022 9.20604 18.2962 7.5434 17.0902 6.25717L18.2497 7.40717L16.9426 6.10383L16.9196 6.08083C16.2096 5.36648 15.3649 4.8001 14.4345 4.41451C13.5041 4.02892 12.5064 3.83177 11.4992 3.8345Z" fill="black" fill-opacity="0.54"/>
</svg>
